<?xml version="1.0" encoding="utf-8"?>
<!-- Generator: Adobe Illustrator 19.0.0, SVG Export Plug-In . SVG Version: 6.00 Build 0)  -->
<svg version="1.1" id="Warstwa_1" xmlns="http://www.w3.org/2000/svg" xmlns:xlink="http://www.w3.org/1999/xlink" x="0px" y="0px"
	 viewBox="-943 525 32 32" style="enable-background:new -943 525 32 32;" xml:space="preserve">
<style type="text/css">
	.st0{fill:#FFFFFF;}
</style>
<g>
	<path class="st0" d="M-926,529c-0.6,0-1,0.4-1,1v19.6l-4.3-4.3c-0.4-0.4-1-0.4-1.4,0s-0.4,1,0,1.4l6,6c0,0,0,0,0,0
		c0.1,0.1,0.2,0.2,0.3,0.2c0.2,0.1,0.5,0.1,0.8,0c0.1,0,0.2-0.1,0.3-0.2l6-6c0.4-0.4,0.4-1,0-1.4s-1-0.4-1.4,0l-4.3,4.3V530
		C-925,529.4-925.4,529-926,529z"/>
</g>
</svg>
