<?xml version="1.0" encoding="utf-8"?>
<!-- Generator: Adobe Illustrator 19.0.0, SVG Export Plug-In . SVG Version: 6.00 Build 0)  -->
<svg version="1.1" id="Ilustration" xmlns="http://www.w3.org/2000/svg" xmlns:xlink="http://www.w3.org/1999/xlink" x="0px"
	 y="0px" viewBox="890 -465 1979.9 1080" style="enable-background:new 890 -465 1979.9 1080;" xml:space="preserve">
<style type="text/css">
	.st0{fill:#F0F0F0;}
	.st1{fill:#FFFFFF;}
	.st2{fill:#AFF2E2;}
	.st3{fill:#E8E8E8;}
	.st4{fill:#797FB8;}
	.st5{fill:#727BAB;}
	.st6{display:none;}
	.st7{display:inline;fill:none;stroke:#E8E8E8;stroke-width:18;stroke-miterlimit:10;}
	.st8{display:inline;fill:#FFFFFF;stroke:#A5AAD8;stroke-width:11.8186;stroke-miterlimit:10;}
	.st9{display:inline;fill:#FFFFFF;stroke:#A5AAD8;stroke-width:8;stroke-miterlimit:10;}
	.st10{display:inline;fill:#A5AAD8;}
	.st11{display:inline;fill:#62627F;}
	.st12{display:inline;fill:#E8E8E8;}
	.st13{display:inline;}
	.st14{fill:none;stroke:#E8E8E8;stroke-width:6.6375;stroke-miterlimit:10;}
	.st15{fill:none;stroke:#A5AAD8;stroke-width:3.9825;stroke-miterlimit:10;}
	.st16{fill:#97231D;}
	.st17{fill:#CF4D46;}
	.st18{fill:#039475;}
	.st19{fill:#34B399;}
	.st20{clip-path:url(#SVGID_4_);fill:#0DA37F;}
	.st21{fill:#0DA37F;}
	.st22{fill:#F2F2F2;}
	.st23{fill:#62627F;}
	.st24{fill:#CCCCCC;}
	.st25{fill:#696F9F;}
	.st26{fill:#F8A246;}
	.st27{fill:#F4C02E;}
	.st28{fill:none;stroke:#A5AAD8;stroke-width:8;stroke-miterlimit:10;}
	.st29{fill:#555570;}
	.st30{fill:#FCCEA4;}
	.st31{clip-path:url(#SVGID_8_);fill:#039475;}
	.st32{clip-path:url(#SVGID_12_);fill:#34B399;}
	.st33{clip-path:url(#SVGID_15_);fill:#534741;}
	.st34{fill:none;stroke:#34B399;stroke-width:10.4669;stroke-miterlimit:10;}
	.st35{opacity:0.5;fill:#A5AAD8;enable-background:new    ;}
	.st36{fill:#F7CD45;}
	.st37{fill:#F4B400;}
	.st38{clip-path:url(#SVGID_18_);fill:#F9B175;}
	.st39{clip-path:url(#SVGID_20_);fill:#F4B400;}
	.st40{fill:none;stroke:#EDEDED;stroke-width:5;stroke-linecap:round;stroke-miterlimit:10;}
	.st41{fill:#EDEDED;}
	.st42{clip-path:url(#SVGID_22_);fill:#F9B175;}
	.st43{fill:#424254;}
	.st44{clip-path:url(#SVGID_24_);fill:#797999;}
	.st45{clip-path:url(#SVGID_26_);fill:#797999;}
	.st46{fill:#E6E6E6;}
	.st47{fill:#F88A46;}
	.st48{fill:#46465C;}
	.st49{fill:#534741;}
	.st50{display:inline;fill:#534741;}
	.st51{fill:none;stroke:#534741;stroke-width:2;stroke-miterlimit:10;}
</style>
<g id="background">
	<g id="white_wall">
		<polygon id="the_wall" class="st0" points="2400.8,589.4 1402.3,563.2 1499.3,-174.8 2850.9,-441 		"/>
		<polygon id="window" class="st1" points="2446.1,231.3 1918,165.2 1936.2,-196.8 2601.6,-316.4 		"/>
		<path id="trees" class="st2" d="M1920.8,134.2c0,0,10.5-54.9,84.3-56.7c73.8-1.8,107.8,74.7,107.8,74.7s62.1-25.3,114.5-12.5
			c27.3,6.7,66.5,24.5,82,46.5c54.5-26.7,119.5-26.1,155.5-21l-18.8,66.1l-528.1-66.1L1920.8,134.2z"/>
		<polygon id="window_bar" class="st3" points="2216,-272.7 2157,208 2184.1,210.5 2254.8,-285.4 		"/>
		<polygon id="white_wall_shadow" class="st3" points="1936.2,-196.8 1916,167.3 1901.8,162.2 1906.8,-188.7 1477.9,-39.5 
			1495.2,-174.1 2846.8,-440.3 2627.3,64.3 2601.6,-316.4 		"/>
	</g>
	<polygon id="purple_wall" class="st4" points="909,-281.9 1089.5,586.1 1332.9,570.3 1554.3,547.9 1495.3,-174.4 	"/>
	<polygon id="purple_wall_shadow" class="st5" points="1505.4,-49.1 990.8,109.8 909,-281.9 1495.3,-174.4 	"/>
	<g id="clock" class="st6">
		
			<ellipse id="shadow_4_" transform="matrix(0.9977 6.815865e-002 -6.815865e-002 0.9977 1.4549 -118.0048)" class="st7" cx="1730" cy="-37.7" rx="52.7" ry="58.4"/>
		
			<ellipse id="clock_1_" transform="matrix(0.9977 6.815865e-002 -6.815865e-002 0.9977 1.78 -118.2802)" class="st8" cx="1734.2" cy="-33.1" rx="47.8" ry="58.9"/>
		<polyline class="st9" points="1735.5,-67.4 1734.3,-33 1750.5,-17.7 		"/>
	</g>
	<g id="calendar" class="st6">
		<polygon id="paper_back" class="st10" points="1191.8,104.8 1052.8,106.3 1072.5,254.3 1080.2,253.5 1080.8,256.9 1093.7,260.1 
			1213,246.3 		"/>
		<polygon id="dark_bar" class="st11" points="1194.5,128 1056.8,136.1 1052.8,106.3 1191.8,104.8 		"/>
		<polygon id="paper_2_" class="st12" points="1052.8,106.3 1191.8,104.8 1220.8,248.7 1093.7,260.1 		"/>
		<polygon id="dark_bar_1_" class="st11" points="1196.4,127.9 1059.3,132.3 1052.8,106.3 1191.8,104.8 		"/>
		<g id="lines" class="st13">
			<line class="st14" x1="1071.7" y1="119.5" x2="1150.3" y2="117.6"/>
			<polygon class="st15" points="1199.9,230 1111.8,238.6 1091.7,157.5 1179.9,153.8 			"/>
			<line class="st15" x1="1088.5" y1="149" x2="1147" y2="147.1"/>
			<line class="st15" x1="1108.3" y1="156.7" x2="1128.8" y2="236.5"/>
			<line class="st15" x1="1128.8" y1="155.6" x2="1148.4" y2="234.2"/>
			<line class="st15" x1="1150.3" y1="156.2" x2="1167.9" y2="233.7"/>
			<line class="st15" x1="1164.2" y1="155.6" x2="1181.8" y2="233.1"/>
			<line class="st15" x1="1096.3" y1="176.1" x2="1184.3" y2="170.5"/>
			<line class="st15" x1="1100.3" y1="192.3" x2="1188" y2="184.5"/>
			<line class="st15" x1="1104.7" y1="207.8" x2="1192.3" y2="200.1"/>
			<line class="st15" x1="1106.4" y1="223.4" x2="1194.2" y2="215.6"/>
		</g>
	</g>
</g>
<g id="red_armchair">
	<path id="back" class="st16" d="M1569.3,424.5L1485.9,288L1300.3,20.6c-40.2,31.1-83.1,92.1-32.4,245.3s139.5,260.2,139.5,260.2
		l237.9,44.2l131.9,3.4l108-152.9L1569.3,424.5z"/>
	<path id="highlight_3_" class="st17" d="M1351.2-6.4c-99.9,24.7-103.8,116.8-81.1,190.8c22.7,74,29.9,127.3,63.6,114.1
		c79-31,103.8,105.2,103.8,105.2l289.4-62.3c0,0-43.4-157.7-100.5-123.3s-57.8-22.1-76.6-88.3C1530.9,63.6,1474.8-36.9,1351.2-6.4z"
		/>
	<path id="interviewer_shadow" class="st16" d="M1435.7,38.5c-8.7-23.1-58.7-26.3-87.4-6.1c-14.4,10.2-39.8,49.2-21.6,77.9
		c6.1,9.7,35.5,46.5,35.5,46.5s-29.4,26.1-30.5,47c-4,79.3,37,28.1,80.9,124.3c17.5,38.3,37,32.5,37,32.5l66.4-12.2L1435.7,38.5z"/>
</g>
<g id="table">
	<g id="table_1_">
		<polygon class="st18" points="2404,532.4 2103.5,517.1 1991.7,356.1 2316.8,282 2349.5,294.3 		"/>
		<g>
			<g>
				<path id="SVGID_1_" class="st18" d="M2260.4,335.7l1.5-29.5c0,0-294-32.6-335.3-24c-133.8,28-426,89.6-497.9,107.3
					c-0.5,0.1-0.9,0.2-1.4,0.4h-0.1c-75.4,17.6-35.7,174.5-35.7,174.5l313.3,7.5c1-19.3,5.8-62.3,36.2-73.9L2260.4,335.7z"/>
			</g>
		</g>
		<g>
			<g>
				<path id="SVGID_3_" class="st19" d="M2318.3,281.9l-373.1-22.2c-8-1.2-16.2-0.9-24.1,0.7c-72.4,15.2-450.9,94.7-515.9,110.7
					c-0.5,0.1-0.9,0.2-1.4,0.4h-0.1c-75.4,17.6-12.2,192.9-12.2,192.9l276.3,6.7c0,0,1-73,49.7-91.5L2319,288.1
					C2322.4,287,2321.8,282.1,2318.3,281.9z"/>
			</g>
			<g>
				<g>
					<g>
						<g>
							<defs>
								<path id="SVGID_2_" d="M2318.3,281.9l-373.1-22.2c-8-1.2-16.2-0.9-24.1,0.7c-72.4,15.2-450.9,94.7-515.9,110.7
									c-0.5,0.1-0.9,0.2-1.4,0.4h-0.1c-75.4,17.6-12.2,192.9-12.2,192.9l276.3,6.7c0,0,1-73,49.7-91.5L2319,288.1
									C2322.4,287,2321.8,282.1,2318.3,281.9z"/>
							</defs>
							<clipPath id="SVGID_4_">
								<use xlink:href="#SVGID_2_"  style="overflow:visible;"/>
							</clipPath>
							<polygon class="st20" points="1320.7,424.8 1713.4,538.9 1668,571.6 1391.5,564.4 							"/>
						</g>
					</g>
				</g>
			</g>
		</g>
	</g>
	<g id="shadows">
		<g id="shadow_legs">
			<polygon class="st21" points="1803.4,285.9 1766.7,293.4 1913.3,283.2 1868.3,272.3 			"/>
			<polygon class="st21" points="1958.3,262.7 1927.3,265.7 1921.3,282.5 1976.3,279.2 			"/>
		</g>
		<polygon id="shadow_hand" class="st21" points="1926.3,379.1 1919.3,415.3 1964.2,403 1947.9,361.2 		"/>
	</g>
	<g id="stuff_on_table">
		<g id="phone_1_">
			<path id="shadow_iphone" class="st21" d="M1814.9,298.9c0,0-7.1,0.8-8.5,5.8c0,0-4.7,21.5-4.7,24.2s-4.2,9,11.5,11.3
				c12.7,1.9,36.6,2.8,46.7,3.5c2.5,0.2,10.3-0.1,12.5-1.2l27.2-6L1814.9,298.9z"/>
			<path class="st22" d="M1896.3,338.7l-79-7.8c-4.5-0.4-7.7-3.1-7.3-7.6l3.2-22.1c0.4-4.5,4.1-5.6,8.5-5.2l75.5,5
				c4.5,0.4,6.4,2.5,6,7l0.7,23.2C1903.4,335.7,1900.8,339.1,1896.3,338.7z"/>
			<polygon class="st23" points="1825.2,298.4 1822.4,325.2 1896.9,331.9 1896,303 			"/>
			<path class="st22" d="M1840.4,334.6l-14-1.3c-0.8-0.1-1.4-0.8-1.3-1.6l0,0c0.1-0.8,0.8-1.4,1.6-1.3l14,1.3
				c0.8,0.1,1.4,0.8,1.3,1.6l0,0C1841.9,334.1,1841.3,334.7,1840.4,334.6z"/>
			<circle class="st24" cx="1818" cy="311" r="3.8"/>
		</g>
		<g id="papers">
			<polygon class="st22" points="1691.4,329 1770.3,316.3 1842.8,388 1757.3,406.2 			"/>
			<polygon class="st1" points="1701.4,335.4 1776.8,313.2 1862.7,375.2 1781.8,403.6 			"/>
		</g>
		<g id="pen">
			<path id="shadow_pen" class="st21" d="M1584.8,356.8c0,0-23.6,5.2-20,8.2s33.7,4.9,45.5,3.1s48.6-5.7,48.6-5.7L1584.8,356.8z"/>
			<path class="st25" d="M1607.5,365.2h-22.1c-2.1,0-3.9-1.7-3.9-3.9v-1.4c0-2.1,1.7-3.9,3.9-3.9h22.1c2.1,0,3.9,1.7,3.9,3.9v1.4
				C1611.3,363.5,1609.7,365.2,1607.5,365.2z"/>
			<path class="st25" d="M1658.8,362.4h-49.9c-1.7,0-3.1-1.4-3.1-3.1l0,0c0-1.7,1.4-3.1,3.1-3.1h49.9c1.7,0,3.1,1.4,3.1,3.1l0,0
				C1661.9,361,1660.5,362.4,1658.8,362.4z"/>
			<path class="st22" d="M1659.3,356.2l10.2,2.9v0.9l-10.6,2.3C1658.8,362.4,1658.2,357,1659.3,356.2"/>
		</g>
	</g>
</g>
<g id="interviewer">
	<g id="legs">
		<path id="leg2" class="st26" d="M1881.3,228.7l-99.7,12.2c-20.2,2.5-38.3,13.6-49.6,30.4l-22.5,34l177.2-36.7L1881.3,228.7z"/>
		<path id="leg1" class="st26" d="M1967.5,207.5l-99.7,12.5c-20.2,2.5-38.2,13.7-49.5,30.6l-22.5,33.6l177.2-36.8L1967.5,207.5z"/>
		<path id="highlight" class="st27" d="M1718.3,291.6c0,0,24.5-35.1,73.6-39.5s77.1-9.5,77.1-9.5l5.5-13.3c0,0-99.3,3.5-126.3,23.1
			C1735.5,261.5,1718.3,291.6,1718.3,291.6z"/>
	</g>
	<g id="shoes">
		<g id="shoe_2">
			<path class="st23" d="M2007.2,152.9c-19.1,19.1-60.9,95.7-56.2,111.9c2.1,7,7.1,10.9,15.7,13.9c13.2,4.5,32.2-17.9,42.5-31.9
				c16.9-23,39.3-57.4,40.6-71.9C2049.4,131.4,2021.2,139,2007.2,152.9z"/>
			<path class="st25" d="M2035.4,142.8c-8.7-2.3-24.4-7.3-37.4,9.8c-13.1,17.1-31,49.3-37,52.3s-27.4,32.8-27.5,40.2
				s17.6,26,22.7,29.2s10.6,5,10.6,5s-9.1-11.6-6.8-23.7c2.3-12.1,28.4-62,38.7-74.6c10.3-12.6,18.3-29.6,37.5-37.3"/>
			<path class="st28" d="M1978.8,183.5c0,0-2.5-1.6-3.8-0.8c-12.4,8.2-6.2,18.9-2.1,23.6"/>
			<path class="st29" d="M2001.9,248.3l-24.6-14.2c-2.4-1.4-3.2-4.4-1.8-6.8l0.8-1.5c1.4-2.4,4.4-3.2,6.8-1.8l24.6,14.2
				c2.4,1.4,3.2,4.4,1.8,6.8l-0.8,1.5C2007.3,248.9,2004.3,249.7,2001.9,248.3z"/>
			<path class="st29" d="M2024.9,205.8l-24.6-14.2c-2.4-1.4-3.2-4.4-1.8-6.8l0.8-1.5c1.4-2.4,4.4-3.2,6.8-1.8l24.6,14.2
				c2.4,1.4,3.2,4.4,1.8,6.8l-0.8,1.5C2030.3,206.4,2027.3,207.2,2024.9,205.8z"/>
		</g>
		<g id="shoe_1">
			<path class="st23" d="M1902.4,156.6c-14.6,22.4-13.8,111.8-3.4,124.8c4.5,5.7,13.4,6.5,21.9,5.6c13.1-1.4,17.5-29.7,20.9-47.1
				c5.4-28.6,8.9-63.1,6.6-84.1c-1.2-10.7-6.3-17.8-11-20.1C1922.9,128.5,1911.8,142.4,1902.4,156.6z"/>
			<path class="st25" d="M1923.2,131.1c-10.3,0.1-28.3,3.4-33.8,24.9s-4.5,63.1-25,68.2c-6.6,1.6-1.6,38.3,1.8,45.2
				s29.6,16.2,36.4,16.9s12.6,1.1,12.6,1.1s-4-1.6-7.4-13.8c-3.4-12.3-6.7-148.3,29.8-137.9C1937.5,135.7,1932.5,131.1,1923.2,131.1
				z"/>
			<path class="st28" d="M1881,194.7c0,0-0.5-0.1-1-0.1c0,0-6.4,22.9,6.3,26.3"/>
			<path class="st28" d="M1887.3,173c0,0-4.1-0.4-5.1,1.4c0,0-4.8,21.1,7.9,24.5"/>
			<path class="st29" d="M1939.7,190.1l-29.1-6.1c-2.7-0.6-4.5-3.5-4-6.5l0.3-1.8c0.5-3,3.1-5,5.8-4.5l29.1,6.1
				c2.7,0.6,4.5,3.5,4,6.5l-0.3,1.8C1944.9,188.6,1942.3,190.6,1939.7,190.1z"/>
			<path class="st29" d="M1934,251.1l-30.4-6.3c-2.8-0.6-4.6-3.6-4.1-6.7l0.3-1.6c0.5-3.1,3.2-5.2,5.9-4.6l30.4,6.3
				c2.8,0.6,4.6,3.6,4.1,6.7l-0.3,1.6C1939.4,249.7,1936.8,251.7,1934,251.1z"/>
		</g>
	</g>
	<g id="arm_with_mug">
		<path id="biceps" class="st30" d="M1673.8,247.6l-30.5-32.1c-35.9-43.3-89.8-62.3-89.8-62.3s-22.7,70.1,29.8,88.1
			c68.4,23.3,85.7,14.6,89.2,13.9S1675.3,251.3,1673.8,247.6z"/>
		<g id="forehand_mug">
			<g id="coffe_mug">
				<g>
					<g>
						<path id="SVGID_5_" class="st19" d="M1606.7,84.8c14.9-0.2,25.4,3.2,26,9.1c0.6,5.8,5.5,58.7-23,58.7c-18.8,0-17,0-17,0
							s-21,1.9-17.5-55.8C1575.7,89.4,1588.3,85,1606.7,84.8z"/>
					</g>
					<g>
						<g>
							<g>
								<g>
									<defs>
										<path id="SVGID_6_" d="M1606.7,84.8c14.9-0.2,25.4,3.2,26,9.1c0.6,5.8,5.5,58.7-23,58.7c-18.8,0-17,0-17,0
											s-21,1.9-17.5-55.8C1575.7,89.4,1588.3,85,1606.7,84.8z"/>
									</defs>
									<clipPath id="SVGID_8_">
										<use xlink:href="#SVGID_6_"  style="overflow:visible;"/>
									</clipPath>
									<path class="st31" d="M1573.5,97.1c0.2,9.1,18.2,11.7,26.8,12c14.5,0.6,24-1.5,25.8-2.9c-0.1,4.5-2.8,41.7-14.2,46.9
										c-11.5,5.2-29.8,2.6-29.8,2.6l-11.7-34.8L1573.5,97.1z"/>
								</g>
							</g>
						</g>
					</g>
					<g>
						<g>
							<g>
								<g>
									<defs>
										<path id="SVGID_10_" d="M1606.7,84.8c14.9-0.2,25.4,3.2,26,9.1c0.6,5.8,5.5,58.7-23,58.7c-18.8,0-17,0-17,0
											s-21,1.9-17.5-55.8C1575.7,89.4,1588.3,85,1606.7,84.8z"/>
									</defs>
									<clipPath id="SVGID_12_">
										<use xlink:href="#SVGID_10_"  style="overflow:visible;"/>
									</clipPath>
									<path class="st32" d="M1579.4,97.9c0,0-4.5,38.6,8.9,53.9c13.4,15.2,7.3,4.3,7.3,4.3s-10.5-8-9.8-51.6
										C1588.3,90.6,1579.4,97.9,1579.4,97.9z"/>
								</g>
							</g>
						</g>
					</g>
				</g>
				<g>
					<g>
						<ellipse id="SVGID_7_" class="st18" cx="1604.4" cy="95.4" rx="24.7" ry="8.6"/>
					</g>
					<g>
						<g>
							<g>
								<g>
									<defs>
										<ellipse id="SVGID_14_" cx="1604.4" cy="95.4" rx="24.7" ry="8.6"/>
									</defs>
									<clipPath id="SVGID_15_">
										<use xlink:href="#SVGID_14_"  style="overflow:visible;"/>
									</clipPath>
									<ellipse class="st33" cx="1605.4" cy="102.9" rx="24.7" ry="8.6"/>
								</g>
							</g>
						</g>
					</g>
				</g>
				<path id="handle" class="st34" d="M1631.7,102.2c11.7-1.9,16.2-2.8,15.6,16s-8.7,24.3-23.4,22"/>
				<g id="smoke">
					<path class="st35" d="M1609.8,88.8c-3.3-11,1.2-13.7,2.2-23.5s-6.8-20.7-7.3-21.3c-0.5-0.7,13.8,7,15,14.8
						C1620.8,66.6,1612.3,72.3,1609.8,88.8z"/>
					<path class="st35" d="M1597.8,97c-3.3-11,0.4-10.9,1.4-20.7s-2.8-22.8-6.6-24.1c7.5,2.1,11.9,15.6,13,23.4
						C1606.8,83.4,1600.2,80.5,1597.8,97z"/>
				</g>
			</g>
			<path id="forehand" class="st30" d="M1665.2,146c0.6-7.2-6.5-36.4-7.4-43.3s-17.7,1.5-21.2,2.6s-4.8,21.5-2.5,28.9
				s11.2,16.7,11.2,16.7c2.3,18.7-8.3,39.1,2.1,78.4c10.3,39.1,26.2,18.3,26.2,18.3C1673.8,239.3,1664.5,153.1,1665.2,146z"/>
		</g>
	</g>
	<g id="body">
		<path class="st36" d="M1433.5,163.7c0,0,85.2-26.6,111-15.6c40.9,17.5,109.7,162.6,135.1,163.2c-36.3,8.2-110.3,25.7-159.7,36.3
			c-29.2,6.3-66.8-56.5-66.8-56.5l-15.6-61.3L1433.5,163.7z"/>
		<path id="shadow" class="st37" d="M1446.8,217.1c0,0,24.4,89.9,110.5,122.5l-62.7,13.4c-45.8-8.3-54.9-53.7-54.9-53.7
			L1446.8,217.1z"/>
	</g>
	<g id="arm_biceps">
		<g>
			<path id="SVGID_16_" class="st30" d="M1449.7,206.3c-0.2-8.8-5.5-47.3-5.5-47.3c-35.9,17-75.4,36.8-56.2,102.3
				c18.6,63.3,34.5,102.5,60.2,96.2l8.5-17.2C1467,283.6,1449.8,215.1,1449.7,206.3z"/>
		</g>
		<g>
			<g>
				<g>
					<defs>
						<path id="SVGID_17_" d="M1449.7,206.3c-0.2-8.8-5.5-47.3-5.5-47.3c-35.9,17-75.4,36.8-56.2,102.3
							c18.6,63.3,34.5,102.5,60.2,96.2l8.5-17.2C1467,283.6,1449.8,215.1,1449.7,206.3z"/>
					</defs>
					<clipPath id="SVGID_18_">
						<use xlink:href="#SVGID_17_"  style="overflow:visible;"/>
					</clipPath>
					<path id="shadow_1_" class="st38" d="M1456.5,196.9c-10.3,5.6-46.9,13.6-45.6,30.8s5.6,48.5,10.1,88.5
						c1.7,14.5,10.8,57.3,24.7,61.6c10.4,3.2-12.3,2.8-12.3,2.8l-62.1-116.1l16.6-78l57.3-35.6L1456.5,196.9z"/>
				</g>
			</g>
		</g>
	</g>
	<g id="shoulder">
		<g>
			<path id="SVGID_9_" class="st36" d="M1445.7,153.9c-4.2-8.1-47.2,11.1-59.5,45.9c-12.3,34.7-4,51.9-4,51.9s59-24.4,77.1-6
				C1466.4,253.1,1460.8,183.2,1445.7,153.9z"/>
		</g>
		<g>
			<g>
				<g>
					<g>
						<defs>
							<path id="SVGID_19_" d="M1445.7,153.9c-4.2-8.1-47.2,11.1-59.5,45.9c-12.3,34.7-4,51.9-4,51.9s59-24.4,77.1-6
								C1466.4,253.1,1460.8,183.2,1445.7,153.9z"/>
						</defs>
						<clipPath id="SVGID_20_">
							<use xlink:href="#SVGID_19_"  style="overflow:visible;"/>
						</clipPath>
						<path id="shadow_2_" class="st39" d="M1457.5,185.1c0,0-41.3-15.5-54.4,14.8c-7.8,18.1-8.1,38.7-8.1,38.7l-24.6,14.1l-0.7-39
							l54.4-68.4l25,3.6L1457.5,185.1z"/>
					</g>
				</g>
			</g>
		</g>
	</g>
	<g id="neck">
		<path class="st37" d="M1442.8,123.5c0,0-31.2-6.1-31.7,35.8c-0.4,33.1,43.3,24.4,58.8,28.4c65,16.8,81.9,10.1,74-21.4
			c-6.7-26.7,1.9-29.2,1.9-29.2L1442.8,123.5z"/>
		<g id="lace_1_">
			<path class="st40" d="M1499.2,185.8c0,0-6.3,12.9-3,26.2s0.7,19.6,0.7,19.6"/>
			<path class="st23" d="M1501,226.8c-0.3,3.6-2.2,6.4-4.3,6.3c-2.1-0.1-3.6-3.1-3.3-6.7c0.3-3.6,2.2-6.4,4.3-6.3
				S1501.3,223.2,1501,226.8z"/>
			<path class="st41" d="M1500.3,232.5c0.3,1.7-1.2,3.3-3.3,3.6c-2.1,0.2-4-1-4.3-2.7s1.2-3.3,3.3-3.6
				C1498.2,229.6,1500,230.8,1500.3,232.5z"/>
		</g>
		<g id="lace">
			<path class="st40" d="M1536.5,188.4c0,0,15.1,2.6,15,16.3s3.9,19.2,3.9,19.2"/>
			<path class="st23" d="M1550.3,220.3c1.1,3.4,3.6,5.7,5.6,5.1s2.8-3.8,1.7-7.3s-3.6-5.7-5.6-5.1S1549.2,216.9,1550.3,220.3z"/>
			<path class="st41" d="M1552.3,225.7c0.1,1.8,1.9,3,4,2.7s3.7-1.9,3.5-3.7c-0.1-1.8-1.9-3-4-2.7
				C1553.8,222.3,1552.2,223.9,1552.3,225.7z"/>
		</g>
	</g>
	<g id="head">
		<g id="head_base">
			<g>
				<path id="SVGID_11_" class="st30" d="M1424.3,33.5c-11.9-4.7-13.4,9.1-12.6,15.7s8,20.6,23.8,18.2c6.1,12.6,18.8,59.6,13.4,67.8
					c-5.4,8.2,85.3,15.7,85.3,15.7l8.7-62.3c0,0,7.7-0.7,9.2-13.4c0.7-5.8-3.8-9-3.8-9s-1.8-20,11.2-25.6
					c3.4-22.5,6.9-30.4-0.9-44.3c-7.9-14.1-87.5-30.8-87.5-30.8l-26.5,42.3l-23.4,21.6"/>
			</g>
			<g>
				<g>
					<g>
						<g>
							<defs>
								<path id="SVGID_21_" d="M1424.3,33.5c-11.9-4.7-13.4,9.1-12.6,15.7s8,20.6,23.8,18.2c6.1,12.6,18.8,59.6,13.4,67.8
									c-5.4,8.2,85.3,15.7,85.3,15.7l8.7-62.3c0,0,7.7-0.7,9.2-13.4c0.7-5.8-3.8-9-3.8-9s-1.8-20,11.2-25.6
									c3.4-22.5,6.9-30.4-0.9-44.3c-7.9-14.1-87.5-30.8-87.5-30.8l-26.5,42.3l-23.4,21.6"/>
							</defs>
							<clipPath id="SVGID_22_">
								<use xlink:href="#SVGID_21_"  style="overflow:visible;"/>
							</clipPath>
							<path id="shadow_3_" class="st42" d="M1440.8,28.8l53.7-57.5l1.6,12.5l-6.4,37.8c0,0-29.7,14-9.8,58.1
								c8.7,19.4,5.9,63.6,5.9,63.6l-52.3,0.1l-41.3-89.9l4.9-32.6l20.4,4.4L1440.8,28.8z"/>
						</g>
					</g>
				</g>
			</g>
		</g>
		<g id="eyes">
			<path class="st43" d="M1516.8,50.8c-0.5,3.2-3.1,3.9-6.7,3.4c-3.5-0.5-6.5-2.1-6.1-5.3c0.5-3.2,3.7-5.4,7.2-4.9
				C1514.8,44.5,1517.3,47.5,1516.8,50.8z"/>
			<path class="st43" d="M1548.2,55.3c-0.6,3.1-2.6,3.7-4.8,3.3c-2.2-0.4-3.8-1.5-3.2-4.6c0.6-3.1,3-5.4,5.2-5
				C1547.5,49.3,1548.8,52.1,1548.2,55.3z"/>
		</g>
		<g id="eyebrows">
			<path class="st23" d="M1490.8,25.4c0.4,1.9,4.9-2.1,16.3-0.5c9.6,1.4,9.4,2.7,14,5.9s8-0.8,7.6-6s-8.2-8.3-21.3-9.6
				C1490.8,13.5,1489.7,19.1,1490.8,25.4z"/>
			<path class="st23" d="M1541.3,34.8c0,0-0.5-10.5,11.7-6.5c5.6,1.8,8.1,4,8.1,4c1.6,3.5,1,9.6-3,9.3c-4.1-0.3-0.4-3.6-9-4.2
				C1543.3,37,1541.3,39.1,1541.3,34.8z"/>
		</g>
		<g id="hair">
			<g>
				<path id="SVGID_13_" class="st23" d="M1427.9-39.7c0,0,2.6,9.3,4.4,7s-3.7-29.2,81-38.9c35.6-4.1,58.2,2.4,78.4,9.3
					c3.2,7.7,16,50.3-30.1,64.7c-11-11.1-26.5-15.5-46.9-17c-22.4-1.6-38.1,5.6-44,31.9c-22,18.7-20.3,23-20.3,23s-6,53.9,26.3,68
					c17.2-24.1,22.1-29.6,39.3-27.8c9.5,6.3,26.9,8.3,26.9,8.3c7.5,6.1,5.6,14.2,5.1,26.8c-0.4,9.4,7.5,25,10.2,35.3
					s-22.4,38.8-63.1,13.1c-31.1-19.7-47.5-34.6-54.1-42.6c0,0-1.5-25.1-2.5-44c-7-22.3-9.7-41.5-9.7-41.5s-4.5-0.8-6.7-2.8
					c-8.4-17.7-5-23.9-7-32.4l6.5,3.5C1421.5,3.9,1418.7-21.7,1427.9-39.7z"/>
			</g>
			<g>
				<g>
					<g>
						<g>
							<defs>
								<path id="SVGID_23_" d="M1427.9-39.7c0,0,2.6,9.3,4.4,7s-3.7-29.2,81-38.9c35.6-4.1,58.2,2.4,78.4,9.3
									c3.2,7.7,16,50.3-30.1,64.7c-11-11.1-26.5-15.5-46.9-17c-22.4-1.6-38.1,5.6-44,31.9c-22,18.7-20.3,23-20.3,23
									s-6,53.9,26.3,68c17.2-24.1,22.1-29.6,39.3-27.8c9.5,6.3,26.9,8.3,26.9,8.3c7.5,6.1,5.6,14.2,5.1,26.8
									c-0.4,9.4,7.5,25,10.2,35.3s-22.4,38.8-63.1,13.1c-31.1-19.7-47.5-34.6-54.1-42.6c0,0-1.5-25.1-2.5-44
									c-7-22.3-9.7-41.5-9.7-41.5s-4.5-0.8-6.7-2.8c-8.4-17.7-5-23.9-7-32.4l6.5,3.5C1421.5,3.9,1418.7-21.7,1427.9-39.7z"/>
							</defs>
							<clipPath id="SVGID_24_">
								<use xlink:href="#SVGID_23_"  style="overflow:visible;"/>
							</clipPath>
							<path class="st44" d="M1591.7-62.3c0,0-13.8,57.8-30.1,64.7c-16.3,6.9,47.7,1.7,47.7,1.7l-10.2-66.3L1591.7-62.3z"/>
						</g>
					</g>
				</g>
			</g>
			<g>
				<g>
					<g>
						<g>
							<defs>
								<path id="SVGID_25_" d="M1427.9-39.7c0,0,2.6,9.3,4.4,7s-3.7-29.2,81-38.9c35.6-4.1,58.2,2.4,78.4,9.3
									c3.2,7.7,16,50.3-30.1,64.7c-11-11.1-26.5-15.5-46.9-17c-22.4-1.6-38.1,5.6-44,31.9c-22,18.7-20.3,23-20.3,23
									s-6,53.9,26.3,68c17.2-24.1,22.1-29.6,39.3-27.8c9.5,6.3,26.9,8.3,26.9,8.3c7.5,6.1,5.6,14.2,5.1,26.8
									c-0.4,9.4,7.5,25,10.2,35.3s-22.4,38.8-63.1,13.1c-31.1-19.7-47.5-34.6-54.1-42.6c0,0-1.5-25.1-2.5-44
									c-7-22.3-9.7-41.5-9.7-41.5s-4.5-0.8-6.7-2.8c-8.4-17.7-5-23.9-7-32.4l6.5,3.5C1421.5,3.9,1418.7-21.7,1427.9-39.7z"/>
							</defs>
							<clipPath id="SVGID_26_">
								<use xlink:href="#SVGID_25_"  style="overflow:visible;"/>
							</clipPath>
							<path class="st45" d="M1540.2,87.6c0,0,8.3,16.2-5.6,30.5c-1.4,1.4,14.3,23.1,8.8,38.6c-5.2,14.8-23.6,23.2-23.6,23.2
								l53.5-7.4l-3.7-61l-22-26.2L1540.2,87.6z"/>
						</g>
					</g>
				</g>
			</g>
		</g>
		<path id="mouth" class="st43" d="M1535.8,107.1c-0.8-0.6-2.8,0.8-11.1,0.3c-7-0.4-6.3-1.5-10.4-2.6c-4.1-1-5.3,0.3-3.6,2.1
			c1.8,1.8,5.1,4.4,16.5,3.8C1538.3,110,1538.3,109.2,1535.8,107.1z"/>
	</g>
	<g id="forehand_and_paper">
		<g id="paper">
			<path class="st46" d="M1648.2,199.8c0.5,0.2,21.6,3.4,22.1,3.6c22.4,9.8,25.3,9.2,25.3,9.2c-34.2,26.7-69.8,78.8-75.4,94.7
				l-77.4-9.9l12.8-19c0,0,34.7-50.6,41.3-57.3l5.3-4c0,0,15-10,21.5-12.1C1628.8,203.3,1648.2,199.8,1648.2,199.8z"/>
			<path class="st22" d="M1670.8,203.5c0,0-15.9-6.7-38-2.3c-15.2,3.1-36.7,20.6-36.7,20.6s36.3-29,47.9-8.2
				C1650.4,200.1,1662.5,202.2,1670.8,203.5z"/>
		</g>
		<path id="hand_3_" class="st30" d="M1449.2,358.7c37.4-9.1,62-43.7,73.3-53c6.7-5.5,16-12.6,22.9-18.6c22.6-1,42-6.6,42-6.6
			s6.7-6.7,3.8-12.1c-1.3-2.4,2.3-7.2,3.9-11.3c2.1-5.3-0.3-10.6,3.4-15.6c6.1-8.3-10.9-6.4-31.6,1.2c-20.7,7.5-24.8,21.4-24.8,21.4
			c-59.7,31-77.2,31.7-94.8,50.3c-6.6,7-6,11.7-12.7,24.8C1427.8,352.3,1435.8,358,1449.2,358.7z"/>
	</g>
</g>
<g id="ginger_dude">
	<g id="ginger">
		<g id="head_1_">
			<path id="head_base_1_" class="st30" d="M2132.1,9.7c0,0-12.4,20.4-10.7,35.7c1.7,15.3,1.1,45.5,1.1,45.5s-14.1,19.2-13.6,22.1
				c0.6,2.8,9.1,11.9,9.1,11.9s4.2,37.2,7,40.6c2.8,3.4,24.1,13.2,24.1,13.2l1.1,21.5c0,0,51.2,17.3,89.4-3.4
				c-0.6-22.7,0-135.3,0-135.3L2163.3,36L2132.1,9.7z"/>
			<path id="eye" class="st43" d="M2123.6,72.3c2.4,0,3.2,3.1,3.2,7.4s-0.8,8.3-3.3,8.3s-4.4-3.5-4.4-7.9
				C2119.3,75.8,2121.3,72.3,2123.6,72.3z"/>
			<g id="hair_1_">
				<path class="st47" d="M2271.8,125.2l10.6-70.5l-0.8-66l-93.1-20.1c0,0-8.5,10.6-17,11.6c-7.8,1-39.6-8.8-44.6-10.3
					c-1.5,9.3-0.3,21.5,1.2,37.4c0.8,8.6,23.2,20.1,23.2,20.1l-10.8,51.2c29.8-8,20.1,20.3,9.6,40.1c0.5,51.5,40.4,53.7,53.4,54.3
					c13.3,0.8,44.7-2.4,44.7-2.4C2248.6,164.9,2270.5,132.7,2271.8,125.2z"/>
				<path id="highlight_1_" class="st26" d="M2171.5-19.8c8.5-1.1,17.5-9.6,17.5-9.6s76.2,34.6,83.8,27
					c3.9,24.3-3.5,134.1-3.5,134.1c13.6-22.7,27.5-126.2,27.5-126.2s-6.7-6.9-4.1-15.2c2.5-8.3-20.8-25.2-20.8-25.2l-6.4,6.9
					c-5.3,7.5-97.3-21.8-97.3-21.8s-3.8,12.2-7.1,14.5c-7,4.8-24.6,3.3-24.6,3.3s-9.5,0.2-9.7,1.9
					C2131.9-28.5,2163.6-18.8,2171.5-19.8z"/>
			</g>
			<path id="eyebrow" class="st47" d="M2133.5,51.8l-10.8-4.3c-2.6-1-3.9-4-2.8-6.6l0,0c1-2.6,0.6-5.2,3.2-4.2l14.2,5.6
				c2.6,1,2.9,6.5,1.9,9l0,0C2138.1,54,2136,52.8,2133.5,51.8z"/>
		</g>
		<g id="suit">
			<path id="leg" class="st48" d="M2023.8,454.7l61.9-6.2l92.1,27.2l-164.5,103.8l-55.2-1c0,0,1.1-11.9,33.6-99.6
				C1994.8,470.4,2014.7,455.6,2023.8,454.7z"/>
			<path id="base" class="st29" d="M2300.5,419.9l8.9-187.9c0,0-44.9-35.9-76.2-35.9l-82.9,4c-8.8,1.9-14.5,3.3-32.2,10.6
				c-8.6,3.6-48.3,25.6-48,34.9l17.5,193.8l5.6,74.3c0,31.3,86.1,66.8,117.4,66.8l4.2-8.8l43.8,12.1c0,0,22.7-31.4,22.7-62.7l9-68.6
				l1.3-12L2300.5,419.9z"/>
			<path id="white_shirt_1_" class="st46" d="M2250.3,200.9l-105,13.6c0,0-1.8-22,2.8-26.6c51.2,19.1,91.2-2.3,91.2-2.3
				L2250.3,200.9z"/>
			<path id="collar" class="st23" d="M2139.6,198.9c-6.3,2-19,7.8-27.7,11.9c-4.3,2-4,8.3,0.5,9.9c9.9,3.5,24,5.6,25.9,6.2
				c45.2,15.2,105-2.3,127.8-10.2c4.1-1.4,5-6.8,1.6-9.5l-18.4-14.3c-0.8-0.7-2-0.7-2.9-0.2c-9.2,5-58.7,29.7-104.7,6.4
				C2141,198.8,2140.3,198.7,2139.6,198.9z"/>
			<polygon id="back_shadow" class="st48" points="2219.3,466 2214.8,539.9 2231.4,543.7 			"/>
			<g id="arm">
				<path id="hand" class="st30" d="M1991.5,350.1c-25.7-9.8-49.5-5.6-64.4,12s-9.5,25.1-2.6,21.3c6.9-3.7,16.4-9.2,16.4-9.2
					l27.8,24.9l37.7-30.4L1991.5,350.1z"/>
				<path id="white_shirt" class="st46" d="M2010.7,365.5c-4.3-6-12.1-12.8-12.1-12.8s-51.1,7.2-37.8,44.6
					c12.8,18.9,30.2,24.9,30.2,24.9L2010.7,365.5z"/>
				<path id="arm_1_" class="st29" d="M2138.5,405.8l-127-47.9c0,0-45.2,2.1-38.9,54c14.8,31.2,167.1,53.4,167.1,53.4L2138.5,405.8z
					"/>
				<g id="buttons">
					<circle class="st43" cx="1987.4" cy="406.3" r="5.5"/>
					<circle class="st43" cx="2009" cy="417.4" r="5.5"/>
				</g>
			</g>
			<polygon id="arm_shadow" class="st48" points="2133,294.8 2139.6,465.3 2151.3,456.6 			"/>
		</g>
	</g>
</g>
<g id="black_armchair">
	<path id="highlight_2_" class="st25" d="M2400.6,591.1l230.6-525.9c0,0-9.8-11.8-89.3-12.5c-173.1-1.6-266.6,417-293.7,447.3
		c-70.6,79.2-223.3-117.4-263.7,78.4"/>
	<path id="dark" class="st48" d="M2557.6,94.9c-173.1,0-287.7,380.6-312.3,413c-73.5,96.8-244.5-108.4-274.1,71.6l429.4,11.6
		l212.2-486.7C2612.9,104.5,2592.4,94.9,2557.6,94.9z"/>
</g>
<g id="fly" class="st6">
	<path id="wing_2" class="st10" d="M2969.6-1006.5c0,0,5-19.3-11.8-26.2C2941-1039.5,2958.3-1009.6,2969.6-1006.5z"/>
	<g class="st13">
		<ellipse class="st49" cx="2969.5" cy="-1006.5" rx="10.5" ry="9.9"/>
	</g>
	<ellipse class="st50" cx="2980" cy="-1006.5" rx="5" ry="7"/>
	<path id="wing_1" class="st10" d="M2973-1006.5c0,0-5-19.3,11.8-26.2C3001.6-1039.5,2984.4-1009.6,2973-1006.5z"/>
	<g id="legs_1_" class="st13">
		<line class="st51" x1="2975.1" y1="-1000.5" x2="2977.8" y2="-993.3"/>
		<line class="st51" x1="2972" y1="-998.4" x2="2972.9" y2="-990.6"/>
		<line class="st51" x1="2967.9" y1="-998.2" x2="2967.5" y2="-989.6"/>
		<line class="st51" x1="2964.3" y1="-999.2" x2="2963.2" y2="-991.7"/>
	</g>
</g>
</svg>
