<?xml version="1.0" encoding="utf-8"?>
<!-- Generator: Adobe Illustrator 21.1.0, SVG Export Plug-In . SVG Version: 6.00 Build 0)  -->
<svg version="1.1" id="Warstwa_1" xmlns="http://www.w3.org/2000/svg" xmlns:xlink="http://www.w3.org/1999/xlink" x="0px" y="0px"
	 viewBox="0 0 307.8 163.3" style="enable-background:new 0 0 307.8 163.3;" xml:space="preserve">
<style type="text/css">
	.st0{fill:#696E9F;}
	.st1{fill:#D1D1D1;}
	.st2{fill:#838383;}
	.st3{fill:#DADADA;}
	.st4{fill:none;stroke:#A7A7A7;stroke-width:8.9045;stroke-linejoin:round;stroke-miterlimit:10;}
	.st5{fill:#A7A7A7;}
	.st6{clip-path:url(#SVGID_2_);fill:#C1C1C1;}
	.st7{clip-path:url(#SVGID_5_);fill:#878787;}
	.st8{fill:#878787;}
	.st9{fill:#C1C1C1;}
</style>
<g id="Warstwa_6">
	<path class="st0" d="M193.8,59.3c-35.5,19.3-20.6,15.5-29.7,13.1c-3.1-0.8-5.5-1.6-7.3-2.2l0.4-2c0,0-0.7,0.4-2.5,1.2
		c-1.8-0.7-2.5-1.2-2.5-1.2l0.4,2c-1.8,0.6-4.1,1.4-7.3,2.2c-9.1,2.4-0.7,5.3-26.5-13.1c-35-24.9-25,71.3-61.1,86.3
		c2,3.9,13.5-1.8,13.5-1.8s-1,2.3-5.3,11.7c33.7-19,29.5-70.7,42.4-78.6c14.8-9.1,23.3,7.3,28,10.5c7.2,4.9,9.6,11.2,18.5,3
		c8.9,8.2,11.3,1.9,18.5-3c4.7-3.2,16.4-19.6,31.2-10.5c12.9,7.9,8.7,59.7,42.4,78.6c-4.3-9.4-5.3-11.7-5.3-11.7s11.4,5.7,13.5,1.8
		C218.8,130.6,230.9,39,193.8,59.3z"/>
</g>
<g id="Warstwa_3">
	<g id="_x12_921174144_13069568_100">
		<g>
			
				<rect x="198.1" y="75.6" transform="matrix(0.4676 -0.8839 0.8839 0.4676 38.0684 217.8394)" class="st1" width="3.5" height="3.5"/>
			<rect x="198.2" y="68.6" transform="matrix(0.4676 -0.8839 0.8839 0.4676 44.2141 214.1741)" width="3.5" height="3.5"/>
			
				<rect x="192.2" y="60.5" transform="matrix(0.4676 -0.8839 0.8839 0.4676 48.2761 204.6104)" class="st2" width="3.5" height="3.5"/>
			
				<rect x="185.7" y="67" transform="matrix(0.4676 -0.8839 0.8839 0.4676 38.9788 202.2819)" class="st3" width="3.5" height="3.5"/>
			
				<rect x="189.3" y="98.4" transform="matrix(0.4676 -0.8839 0.8839 0.4676 13.2237 222.1569)" class="st1" width="3.5" height="3.5"/>
			<rect x="189.5" y="91.4" transform="matrix(0.4676 -0.8839 0.8839 0.4676 19.4972 218.5872)" width="3.5" height="3.5"/>
			
				<rect x="183.5" y="83.2" transform="matrix(0.4676 -0.8839 0.8839 0.4676 23.5401 209.0252)" class="st2" width="3.5" height="3.5"/>
			
				<rect x="176.9" y="89.7" transform="matrix(0.4676 -0.8839 0.8839 0.4676 14.2373 206.5937)" class="st3" width="3.5" height="3.5"/>
			
				<rect x="119.9" y="62.5" transform="matrix(0.4644 -0.8856 0.8856 0.4644 8.2853 142.1788)" class="st1" width="3.5" height="3.5"/>
			<rect x="126.8" y="62.6" transform="matrix(0.4644 -0.8856 0.8856 0.4644 11.8943 148.2839)" width="3.5" height="3.5"/>
			
				<rect x="135" y="56.6" transform="matrix(0.4644 -0.8856 0.8856 0.4644 21.6091 152.353)" class="st2" width="3.5" height="3.5"/>
			
				<rect x="128.5" y="50" transform="matrix(0.4644 -0.8856 0.8856 0.4644 23.8974 143.0387)" class="st3" width="3.5" height="3.5"/>
			<rect x="113.7" y="40" transform="matrix(0.965 -0.2624 0.2624 0.965 -6.9076 31.7562)" class="st1" width="3.5" height="3.5"/>
			<rect x="118.3" y="45.1" transform="matrix(0.965 -0.2624 0.2624 0.965 -8.0896 33.1411)" width="3.5" height="3.5"/>
			<rect x="128.2" y="47" transform="matrix(0.965 -0.2624 0.2624 0.965 -8.2416 35.8058)" class="st2" width="3.5" height="3.5"/>
			
				<rect x="128.6" y="37.7" transform="matrix(0.965 -0.2624 0.2624 0.965 -5.7871 35.5841)" class="st3" width="3.5" height="3.5"/>
			
				<rect x="161.7" y="57.9" transform="matrix(0.5286 -0.8489 0.8489 0.5286 26.4708 166.8687)" class="st1" width="3.5" height="3.5"/>
			<rect x="154.9" y="57.3" transform="matrix(0.5286 -0.8489 0.8489 0.5286 23.7692 160.8038)" width="3.5" height="3.5"/>
			
				<rect x="146.3" y="62.6" transform="matrix(0.5286 -0.8489 0.8489 0.5286 15.1795 156.055)" class="st2" width="3.5" height="3.5"/>
			
				<rect x="152.3" y="69.7" transform="matrix(0.5286 -0.8489 0.8489 0.5286 11.9483 164.4816)" class="st3" width="3.5" height="3.5"/>
			
				<rect x="163.2" y="85.1" transform="matrix(0.9888 -0.149 0.149 0.9888 -11.1065 25.5531)" class="st1" width="3.5" height="3.5"/>
			<rect x="159.2" y="79.5" transform="matrix(0.9888 -0.149 0.149 0.9888 -10.3091 24.8892)" width="3.5" height="3.5"/>
			
				<rect x="149.6" y="76.4" transform="matrix(0.9888 -0.149 0.149 0.9888 -9.9567 23.4253)" class="st2" width="3.5" height="3.5"/>
			
				<rect x="148.2" y="85.7" transform="matrix(0.9888 -0.149 0.149 0.9888 -11.3514 23.3164)" class="st3" width="3.5" height="3.5"/>
			
				<rect x="80.2" y="61.2" transform="matrix(0.4061 -0.9138 0.9138 0.4061 -8.8852 112.3086)" class="st1" width="3.5" height="3.5"/>
			<rect x="87.1" y="60.8" transform="matrix(0.4061 -0.9138 0.9138 0.4061 -4.3531 118.3717)" width="3.5" height="3.5"/>
			
				<rect x="94.9" y="54.4" transform="matrix(0.4061 -0.9138 0.9138 0.4061 6.1417 121.6754)" class="st2" width="3.5" height="3.5"/>
			
				<rect x="87.9" y="48.2" transform="matrix(0.4061 -0.9138 0.9138 0.4061 7.5974 111.6382)" class="st3" width="3.5" height="3.5"/>
			
				<rect x="131" y="69.9" transform="matrix(0.4709 -0.8822 0.8822 0.4709 7.0306 155.0622)" class="st1" width="3.5" height="3.5"/>
			<rect x="124.1" y="69.8" transform="matrix(0.4709 -0.8822 0.8822 0.4709 3.48 148.8673)" width="3.5" height="3.5"/>
			
				<rect x="115.9" y="75.7" transform="matrix(0.4709 -0.8822 0.8822 0.4709 -6.0693 144.778)" class="st2" width="3.5" height="3.5"/>
			
				<rect x="122.4" y="82.3" transform="matrix(0.4709 -0.8822 0.8822 0.4709 -8.5249 153.9812)" class="st3" width="3.5" height="3.5"/>
			
				<rect x="86.7" y="95.4" transform="matrix(0.9186 -0.3953 0.3953 0.9186 -31.1923 42.8599)" class="st1" width="3.5" height="3.5"/>
			<rect x="91.1" y="90.1" transform="matrix(0.9186 -0.3953 0.3953 0.9186 -28.7442 44.1895)" width="3.5" height="3.5"/>
			<rect x="91.6" y="80" transform="matrix(0.9186 -0.3953 0.3953 0.9186 -24.702 43.5522)" class="st2" width="3.5" height="3.5"/>
			
				<rect x="82.3" y="80.9" transform="matrix(0.9186 -0.3953 0.3953 0.9186 -25.8355 39.9768)" class="st3" width="3.5" height="3.5"/>
			
				<rect x="176.6" y="118.4" transform="matrix(0.4243 -0.9055 0.9055 0.4243 -6.1048 230.602)" class="st1" width="3.5" height="3.5"/>
			<rect x="169.6" y="118.6" transform="matrix(0.4243 -0.9055 0.9055 0.4243 -10.3765 224.4408)" width="3.5" height="3.5"/>
			
				<rect x="161.7" y="125" transform="matrix(0.4243 -0.9055 0.9055 0.4243 -20.6521 220.962)" class="st2" width="3.5" height="3.5"/>
			
				<rect x="168.5" y="131.3" transform="matrix(0.4243 -0.9055 0.9055 0.4243 -22.4084 230.7844)" class="st3" width="3.5" height="3.5"/>
			
				<rect x="82" y="118.8" transform="matrix(0.1268 -0.9919 0.9919 0.1268 -46.3559 188.3454)" class="st1" width="3.5" height="3.5"/>
			<rect x="88.6" y="116.4" transform="matrix(0.1268 -0.9919 0.9919 0.1268 -38.3254 192.8369)" width="3.5" height="3.5"/>
			
				<rect x="94.1" y="108" transform="matrix(0.1268 -0.9919 0.9919 0.1268 -25.2314 190.9278)" class="st2" width="3.5" height="3.5"/>
			
				<rect x="85.7" y="104.1" transform="matrix(0.1268 -0.9919 0.9919 0.1268 -28.657 179.1436)" class="st3" width="3.5" height="3.5"/>
			
				<rect x="106.4" y="105.7" transform="matrix(0.1827 -0.9832 0.9832 0.1827 -17.2221 194.0866)" class="st1" width="3.5" height="3.5"/>
			<rect x="99.7" y="107.6" transform="matrix(0.1827 -0.9832 0.9832 0.1827 -24.561 189.1474)" width="3.5" height="3.5"/>
			
				<rect x="93.8" y="115.8" transform="matrix(0.1827 -0.9832 0.9832 0.1827 -37.486 189.9889)" class="st2" width="3.5" height="3.5"/>
			
				<rect x="102" y="120.2" transform="matrix(0.1827 -0.9832 0.9832 0.1827 -35.1173 201.6248)" class="st3" width="3.5" height="3.5"/>
			
				<rect x="138.6" y="118.8" transform="matrix(0.2489 -0.9685 0.9685 0.2489 -11.3231 226.4184)" class="st1" width="3.5" height="3.5"/>
			<rect x="131.8" y="120.2" transform="matrix(0.2489 -0.9685 0.9685 0.2489 -17.8688 220.9236)" width="3.5" height="3.5"/>
			
				<rect x="125.3" y="128" transform="matrix(0.2489 -0.9685 0.9685 0.2489 -30.2361 220.4261)" class="st2" width="3.5" height="3.5"/>
			
				<rect x="133.1" y="132.8" transform="matrix(0.2489 -0.9685 0.9685 0.2489 -29.0415 231.6508)" class="st3" width="3.5" height="3.5"/>
			
				<rect x="102.7" y="136.3" transform="matrix(0.995 -0.1002 0.1002 0.995 -13.3027 11.1554)" class="st1" width="3.5" height="3.5"/>
			<rect x="108.4" y="132.5" transform="matrix(0.995 -0.1002 0.1002 0.995 -12.8984 11.7121)" width="3.5" height="3.5"/>
			
				<rect x="111.9" y="123.1" transform="matrix(0.995 -0.1002 0.1002 0.995 -11.9354 12.0153)" class="st2" width="3.5" height="3.5"/>
			
				<rect x="102.8" y="121.2" transform="matrix(0.995 -0.1002 0.1002 0.995 -11.7893 11.0958)" class="st3" width="3.5" height="3.5"/>
			
				<rect x="160" y="134.5" transform="matrix(0.2406 -0.9706 0.9706 0.2406 -9.4141 260.3932)" class="st1" width="3.5" height="3.5"/>
			<rect x="153.2" y="136" transform="matrix(0.2406 -0.9706 0.9706 0.2406 -16.0295 255.0064)" width="3.5" height="3.5"/>
			
				<rect x="146.7" y="143.7" transform="matrix(0.2406 -0.9706 0.9706 0.2406 -28.4118 254.5873)" class="st2" width="3.5" height="3.5"/>
			
				<rect x="154.6" y="148.5" transform="matrix(0.2406 -0.9706 0.9706 0.2406 -27.1149 265.9236)" class="st3" width="3.5" height="3.5"/>
			
				<rect x="168.2" y="132.1" transform="matrix(0.9905 -0.1376 0.1376 0.9905 -16.7964 24.6533)" class="st1" width="3.5" height="3.5"/>
			<rect x="162.5" y="136" transform="matrix(0.9905 -0.1376 0.1376 0.9905 -17.3912 23.9113)" width="3.5" height="3.5"/>
			
				<rect x="159.3" y="145.6" transform="matrix(0.9905 -0.1376 0.1376 0.9905 -18.7364 23.5603)" class="st2" width="3.5" height="3.5"/>
			
				<rect x="168.5" y="147.2" transform="matrix(0.9905 -0.1376 0.1376 0.9905 -18.8688 24.8469)" class="st3" width="3.5" height="3.5"/>
			
				<rect x="99.8" y="77.2" transform="matrix(0.7803 -0.6254 0.6254 0.7803 -27.0568 80.8578)" class="st1" width="3.5" height="3.5"/>
			<rect x="106.1" y="80" transform="matrix(0.7803 -0.6254 0.6254 0.7803 -27.4441 85.4039)" width="3.5" height="3.5"/>
			
				<rect x="115.9" y="77.8" transform="matrix(0.7803 -0.6254 0.6254 0.7803 -23.926 91.0642)" class="st2" width="3.5" height="3.5"/>
			
				<rect x="112.6" y="69.1" transform="matrix(0.7803 -0.6254 0.6254 0.7803 -19.2025 87.0692)" class="st3" width="3.5" height="3.5"/>
			
				<rect x="94" y="65.8" transform="matrix(0.7086 -0.7056 0.7056 0.7086 -19.7793 87.2373)" class="st1" width="3.5" height="3.5"/>
			<rect x="100.6" y="68" transform="matrix(0.7086 -0.7056 0.7056 0.7086 -19.3842 92.5532)" width="3.5" height="3.5"/>
			
				<rect x="110.1" y="64.7" transform="matrix(0.7086 -0.7056 0.7056 0.7086 -14.3249 98.2949)" class="st2" width="3.5" height="3.5"/>
			
				<rect x="105.9" y="56.5" transform="matrix(0.7086 -0.7056 0.7056 0.7086 -9.7132 92.9471)" class="st3" width="3.5" height="3.5"/>
			
				<rect x="159.3" y="95.5" transform="matrix(0.5975 -0.8019 0.8019 0.5975 -13.1916 168.2955)" class="st1" width="3.5" height="3.5"/>
			<rect x="152.4" y="94.4" transform="matrix(0.5975 -0.8019 0.8019 0.5975 -15.0357 162.3234)" width="3.5" height="3.5"/>
			
				<rect x="143.5" y="99" transform="matrix(0.5975 -0.8019 0.8019 0.5975 -22.3183 156.9803)" class="st2" width="3.5" height="3.5"/>
			
				<rect x="148.8" y="106.6" transform="matrix(0.5975 -0.8019 0.8019 0.5975 -26.2581 164.312)" class="st3" width="3.5" height="3.5"/>
			
				<rect x="127.4" y="112.1" transform="matrix(0.9933 -0.1156 0.1156 0.9933 -12.2994 15.6948)" class="st1" width="3.5" height="3.5"/>
			<rect x="133.2" y="108.3" transform="matrix(0.9933 -0.1156 0.1156 0.9933 -11.8161 16.3389)" width="3.5" height="3.5"/>
			
				<rect x="136.6" y="98.7" transform="matrix(0.9933 -0.1156 0.1156 0.9933 -10.684 16.6645)" class="st2" width="3.5" height="3.5"/>
			
				<rect x="127.4" y="97" transform="matrix(0.9933 -0.1156 0.1156 0.9933 -10.5489 15.5966)" class="st3" width="3.5" height="3.5"/>
			
				<rect x="163.1" y="105.8" transform="matrix(0.2668 -0.9638 0.9638 0.2668 17.1803 237.7798)" class="st1" width="3.5" height="3.5"/>
			<rect x="156.3" y="107.2" transform="matrix(0.2668 -0.9638 0.9638 0.2668 10.859 232.2041)" width="3.5" height="3.5"/>
			
				<rect x="149.6" y="114.8" transform="matrix(0.2668 -0.9638 0.9638 0.2668 -1.3199 231.2727)" class="st2" width="3.5" height="3.5"/>
			
				<rect x="157.3" y="119.8" transform="matrix(0.2668 -0.9638 0.9638 0.2668 -0.5328 242.4839)" class="st3" width="3.5" height="3.5"/>
			
				<rect x="178.3" y="105.3" transform="matrix(0.4092 -0.9125 0.9125 0.4092 8.6577 227.5058)" class="st1" width="3.5" height="3.5"/>
			<rect x="171.3" y="105.6" transform="matrix(0.4092 -0.9125 0.9125 0.4092 4.2933 221.3551)" width="3.5" height="3.5"/>
			
				<rect x="163.5" y="112.1" transform="matrix(0.4092 -0.9125 0.9125 0.4092 -6.2072 218.0326)" class="st2" width="3.5" height="3.5"/>
			
				<rect x="170.4" y="118.2" transform="matrix(0.4092 -0.9125 0.9125 0.4092 -7.7362 228.0079)" class="st3" width="3.5" height="3.5"/>
			
				<rect x="208" y="112.8" transform="matrix(0.1885 -0.9821 0.9821 0.1885 57.6823 298.9598)" class="st1" width="3.5" height="3.5"/>
			<rect x="201.4" y="114.7" transform="matrix(0.1885 -0.9821 0.9821 0.1885 50.4368 294.0334)" width="3.5" height="3.5"/>
			
				<rect x="195.3" y="122.8" transform="matrix(0.1885 -0.9821 0.9821 0.1885 37.5254 294.5878)" class="st2" width="3.5" height="3.5"/>
			
				<rect x="203.5" y="127.3" transform="matrix(0.1885 -0.9821 0.9821 0.1885 39.7829 306.2739)" class="st3" width="3.5" height="3.5"/>
		</g>
	</g>
</g>
<g id="Warstwa_4">
	<g>
		<path class="st4" d="M125.5,47.5c0,0-15.5-0.8-26.6-6c0,34.3,8.6,54.6,38,53.8"/>
		<path class="st4" d="M187.2,47.5c0,0,15.5-0.8,26.6-6c0,34.3-8.6,54.6-38,53.8"/>
		<g>
			<g>
				<path id="SVGID_3_" class="st5" d="M192,31.1c0,46.7-17,84.5-37.8,84.5s-37.7-37.8-37.7-84.5H192z"/>
			</g>
			<g>
				<defs>
					<path id="SVGID_1_" d="M192,31.1c0,46.7-17,84.5-37.8,84.5s-37.7-37.8-37.7-84.5H192z"/>
				</defs>
				<clipPath id="SVGID_2_">
					<use xlink:href="#SVGID_1_"  style="overflow:visible;"/>
				</clipPath>
				<path class="st6" d="M138.1,28.2h-25.6c0,0-0.4,41.2,2.5,56.4s32.2,31.2,32.2,31.2s2-1.1-3.6-14.8c-14.7-36.1-4.2-54.8-5.5-72.9
					V28.2z"/>
			</g>
			<g>
				<defs>
					<path id="SVGID_4_" d="M192,31.1c0,46.7-17,84.5-37.8,84.5s-37.7-37.8-37.7-84.5H192z"/>
				</defs>
				<clipPath id="SVGID_5_">
					<use xlink:href="#SVGID_4_"  style="overflow:visible;"/>
				</clipPath>
				<path class="st7" d="M178.1,29.8c6.1,37-1.4,84.4-17.3,87.1c13.5-20.6,13.8-83.3,9.4-90.6C170.2,26.3,172-7.2,178.1,29.8z"/>
			</g>
		</g>
		<circle class="st5" cx="154.3" cy="128.7" r="7.7"/>
		<path class="st5" d="M185.7,152h0.9c0,0-18.1-5.4-27.3-6.5s1.9-38.1,1.9-38.1h-6.9h-6.9c0,0,11.2,37,1.9,38.1
			c-9.2,1.2-27.3,6.5-27.3,6.5h0.9c-0.6,0.3-0.9,0.6-0.9,1c0,2.2,10.7,8.3,33.3,8.3c23.5-0.6,31.4-6.1,31.4-8.3
			C186.6,152.6,186.3,152.3,185.7,152z"/>
		<ellipse class="st5" cx="154.3" cy="30.8" rx="37.6" ry="9.7"/>
		<ellipse class="st8" cx="154.3" cy="30.8" rx="33.1" ry="6.9"/>
		<path class="st9" d="M149.3,145.4c-0.3,3.2,4.7,4.4,7.4,4.1c2.7-0.3,12.8,1,12.8,5.5c-15.3,6.9-46.9-0.1-47.6-3.1
			C121.9,152,149.3,144.7,149.3,145.4z"/>
		<path class="st9" d="M151,122c0.1,2.5,3.2,2.1,4.9,2.1s1.2,6.5-2.9,7.3c-4.1,0.7-6.4-2.4-6.4-2.4s0.1-4,2.5-6S151,122,151,122z"/>
	</g>
</g>
<g id="Warstwa_5">
</g>
</svg>
