<?xml version="1.0" encoding="utf-8"?>
<!-- Generator: Adobe Illustrator 21.1.0, SVG Export Plug-In . SVG Version: 6.00 Build 0)  -->
<svg version="1.1" id="Warstwa_1" xmlns="http://www.w3.org/2000/svg" xmlns:xlink="http://www.w3.org/1999/xlink" x="0px" y="0px"
	 viewBox="0 0 307.8 163.3" style="enable-background:new 0 0 307.8 163.3;" xml:space="preserve">
<style type="text/css">
	.st0{fill:#FDD9B2;}
	.st1{fill:#DA923E;}
	.st2{fill:#FCD09F;}
	.st3{fill:none;stroke:#E2B26A;stroke-width:5.472;stroke-linejoin:round;stroke-miterlimit:10;}
	.st4{fill:#E2B26A;}
	.st5{clip-path:url(#SVGID_2_);fill:#F5C072;}
	.st6{clip-path:url(#SVGID_4_);fill:#AF8C54;}
	.st7{fill:#AF8C54;}
	.st8{fill:#F5C072;}
</style>
<symbol  id="_x12_1190916096_13069568_100" viewBox="-17.3 -13.1 34.5 26.3">
	
		<use xlink:href="#_x12_921189504_13069568_100"  width="6.5" height="6.5" x="-3.3" y="-3.3" transform="matrix(1 0 0 1 -14 9.875)" style="overflow:visible;"/>
	
		<use xlink:href="#_x12_921183616_13069568_100"  width="6.5" height="6.5" x="-3.3" y="-3.3" transform="matrix(1 0 0 1 -8.125 -1.625)" style="overflow:visible;"/>
	
		<use xlink:href="#_x12_921176448_13069568_100"  width="6.5" height="6.5" x="-3.3" y="-3.3" transform="matrix(1 0 0 1 8.75 -9.875)" style="overflow:visible;"/>
	
		<use xlink:href="#_x12_921174144_13069568_100_1_"  width="6.5" height="6.5" x="-3.3" y="-3.3" transform="matrix(1 0 0 1 14 6.625)" style="overflow:visible;"/>
</symbol>
<symbol  id="_x12_921174144_13069568_100_1_" viewBox="-3.3 -3.3 6.5 6.5">
	<rect x="-3.3" y="-3.3" class="st0" width="6.5" height="6.5"/>
</symbol>
<symbol  id="_x12_921176448_13069568_100" viewBox="-3.3 -3.3 6.5 6.5">
	<rect x="-3.3" y="-3.3" class="st1" width="6.5" height="6.5"/>
</symbol>
<symbol  id="_x12_921183616_13069568_100" viewBox="-3.3 -3.3 6.5 6.5">
	<rect x="-3.3" y="-3.3" width="6.5" height="6.5"/>
</symbol>
<symbol  id="_x12_921189504_13069568_100" viewBox="-3.3 -3.3 6.5 6.5">
	<rect x="-3.3" y="-3.3" class="st2" width="6.5" height="6.5"/>
</symbol>
<g id="Warstwa_6">
</g>
<g id="Warstwa_3">
	<g>
		
			<use xlink:href="#_x12_1190916096_13069568_100"  width="34.5" height="26.3" x="-17.3" y="-13.1" transform="matrix(-0.4746 -0.2511 -0.2511 0.4746 196.7527 97.0638)" style="overflow:visible;"/>
		
			<use xlink:href="#_x12_1190916096_13069568_100"  width="34.5" height="26.3" x="-17.3" y="-13.1" transform="matrix(0.2493 -0.4755 -0.4755 -0.2493 139.619 65.1671)" style="overflow:visible;"/>
		
			<use xlink:href="#_x12_1190916096_13069568_100"  width="34.5" height="26.3" x="-17.3" y="-13.1" transform="matrix(0.5181 -0.1409 -0.1409 -0.5181 133.8197 50.0164)" style="overflow:visible;"/>
		
			<use xlink:href="#_x12_1190916096_13069568_100"  width="34.5" height="26.3" x="-17.3" y="-13.1" transform="matrix(-0.2838 0.4557 0.4557 0.2838 164.8997 68.3137)" style="overflow:visible;"/>
		
			<use xlink:href="#_x12_1190916096_13069568_100"  width="34.5" height="26.3" x="-17.3" y="-13.1" transform="matrix(-0.5309 7.997810e-02 7.997810e-02 0.5309 166.6274 87.9099)" style="overflow:visible;"/>
		
			<use xlink:href="#_x12_1190916096_13069568_100"  width="34.5" height="26.3" x="-17.3" y="-13.1" transform="matrix(0.2181 -0.4906 -0.4906 -0.2181 99.6607 63.3998)" style="overflow:visible;"/>
		
			<use xlink:href="#_x12_1190916096_13069568_100"  width="34.5" height="26.3" x="-17.3" y="-13.1" transform="matrix(-0.2528 0.4736 0.4736 0.2528 134.39 80.9385)" style="overflow:visible;"/>
		
			<use xlink:href="#_x12_1190916096_13069568_100"  width="34.5" height="26.3" x="-17.3" y="-13.1" transform="matrix(-0.2122 -0.4932 -0.4932 0.2122 100.1174 93.3322)" style="overflow:visible;"/>
		
			<use xlink:href="#_x12_1190916096_13069568_100"  width="34.5" height="26.3" x="-17.3" y="-13.1" transform="matrix(-0.2278 0.4862 0.4862 0.2278 180.1445 129.8314)" style="overflow:visible;"/>
		
			<use xlink:href="#_x12_1190916096_13069568_100"  width="34.5" height="26.3" x="-17.3" y="-13.1" transform="matrix(6.809453e-02 -0.5325 -0.5325 -6.809453e-02 99.7915 118.9357)" style="overflow:visible;"/>
		
			<use xlink:href="#_x12_1190916096_13069568_100"  width="34.5" height="26.3" x="-17.3" y="-13.1" transform="matrix(-9.808157e-02 0.5278 0.5278 9.808157e-02 111.4144 118.96)" style="overflow:visible;"/>
		
			<use xlink:href="#_x12_1190916096_13069568_100"  width="34.5" height="26.3" x="-17.3" y="-13.1" transform="matrix(-0.1336 0.52 0.52 0.1336 143.1435 131.5567)" style="overflow:visible;"/>
		
			<use xlink:href="#_x12_1190916096_13069568_100"  width="34.5" height="26.3" x="-17.3" y="-13.1" transform="matrix(-5.381992e-02 -0.5342 -0.5342 5.381992e-02 118.6576 135.1717)" style="overflow:visible;"/>
		
			<use xlink:href="#_x12_1190916096_13069568_100"  width="34.5" height="26.3" x="-17.3" y="-13.1" transform="matrix(-0.1292 0.5211 0.5211 0.1292 164.5851 147.3095)" style="overflow:visible;"/>
		
			<use xlink:href="#_x12_1190916096_13069568_100"  width="34.5" height="26.3" x="-17.3" y="-13.1" transform="matrix(7.387103e-02 0.5318 0.5318 -7.387103e-02 175.5122 147.05)" style="overflow:visible;"/>
		
			<use xlink:href="#_x12_1190916096_13069568_100"  width="34.5" height="26.3" x="-17.3" y="-13.1" transform="matrix(0.4189 -0.3358 -0.3358 -0.4189 120.4821 83.5041)" style="overflow:visible;"/>
		
			<use xlink:href="#_x12_1190916096_13069568_100"  width="34.5" height="26.3" x="-17.3" y="-13.1" transform="matrix(0.3804 -0.3788 -0.3788 -0.3804 114.5898 71.1732)" style="overflow:visible;"/>
		
			<use xlink:href="#_x12_1190916096_13069568_100"  width="34.5" height="26.3" x="-17.3" y="-13.1" transform="matrix(-0.3208 0.4305 0.4305 0.3208 162.0919 105.2863)" style="overflow:visible;"/>
		
			<use xlink:href="#_x12_1190916096_13069568_100"  width="34.5" height="26.3" x="-17.3" y="-13.1" transform="matrix(-6.203851e-02 -0.5333 -0.5333 6.203851e-02 143.3603 110.9566)" style="overflow:visible;"/>
		
			<use xlink:href="#_x12_1190916096_13069568_100"  width="34.5" height="26.3" x="-17.3" y="-13.1" transform="matrix(-0.1432 0.5174 0.5174 0.1432 167.5694 118.5347)" style="overflow:visible;"/>
		
			<use xlink:href="#_x12_1190916096_13069568_100"  width="34.5" height="26.3" x="-17.3" y="-13.1" transform="matrix(-0.2197 0.4899 0.4899 0.2197 181.9268 116.8131)" style="overflow:visible;"/>
		
			<use xlink:href="#_x12_1190916096_13069568_100"  width="34.5" height="26.3" x="-17.3" y="-13.1" transform="matrix(-0.1012 0.5273 0.5273 0.1012 212.9933 126.1059)" style="overflow:visible;"/>
	</g>
	<g id="_x12_921174144_13069568_100">
	</g>
</g>
<g id="Warstwa_4">
	<g>
		<path class="st3" d="M185.6,51.3c0,0,12.2-0.1,24.2-0.1c0,31.3-7.7,44.3-34.6,43.6"/>
		<path class="st3" d="M126.9,51.3c0,0-12.2-0.1-24.2-0.1c0,31.3,7.7,44.3,34.6,43.6"/>
		<g>
			<g>
				<path id="SVGID_5_" class="st4" d="M190,36.6c0,42.5-15.4,77.1-34.4,77.1s-34.4-34.5-34.4-77.1H190z"/>
			</g>
			<g>
				<defs>
					<path id="SVGID_1_" d="M190,36.6c0,42.5-15.4,77.1-34.4,77.1s-34.4-34.5-34.4-77.1H190z"/>
				</defs>
				<clipPath id="SVGID_2_">
					<use xlink:href="#SVGID_1_"  style="overflow:visible;"/>
				</clipPath>
				<path class="st5" d="M117.5,33.7c0,0-0.3,37.6,2.3,51.5c2.6,13.8,29.4,28.4,29.4,28.4s1.8-1-3.3-13.5
					c-13.4-32.9-3.8-49.9-5-66.4C140.9,33.7,117.5,33.7,117.5,33.7z"/>
			</g>
			<g>
				<defs>
					<path id="SVGID_3_" d="M190,36.6c0,42.5-15.4,77.1-34.4,77.1s-34.4-34.5-34.4-77.1H190z"/>
				</defs>
				<clipPath id="SVGID_4_">
					<use xlink:href="#SVGID_3_"  style="overflow:visible;"/>
				</clipPath>
				<path class="st6" d="M177.2,35.4c5.7,33.7-1.2,76.9-15.7,79.4c12.3-18.9,12.6-76,8.6-82.7C170.1,32.1,171.6,1.6,177.2,35.4z"/>
			</g>
		</g>
		<path class="st4" d="M184.3,146.6h0.8c0,0-14.7-4.9-23.1-6c-8.4-1.1-0.1-34.8-0.1-34.8h-6.3h-6.3c0,0,8.4,33.7-0.1,34.8
			c-8.4,1.1-23.1,6-23.1,6h0.8c-0.6,0.3-0.8,0.6-0.8,0.9c0,2,9.8,7.6,30.4,7.6c21.4-0.6,28.6-5.5,28.6-7.6
			C185.1,147.2,184.8,146.9,184.3,146.6z"/>
		<ellipse class="st4" cx="155.6" cy="36.2" rx="34.3" ry="8.9"/>
		<ellipse class="st7" cx="155.6" cy="36.2" rx="30.2" ry="6.3"/>
		<path class="st8" d="M151,140.6c-0.3,2.9,4.3,4,6.8,3.7c2.5-0.2,11.7,0.9,11.7,5c-13.9,6.3-42.7-0.1-43.4-2.8
			C126.1,146.6,151.1,140,151,140.6z"/>
	</g>
</g>
<g id="Warstwa_5">
</g>
</svg>
