<?xml version="1.0" encoding="utf-8"?>
<!-- Generator: Adobe Illustrator 21.1.0, SVG Export Plug-In . SVG Version: 6.00 Build 0)  -->
<svg version="1.1" id="Warstwa_1" xmlns="http://www.w3.org/2000/svg" xmlns:xlink="http://www.w3.org/1999/xlink" x="0px" y="0px"
	 viewBox="0 0 307.8 163.3" style="enable-background:new 0 0 307.8 163.3;" xml:space="preserve">
<style type="text/css">
	.st0{fill:#FDD9B2;}
	.st1{fill:#DA923E;}
	.st2{fill:#FCD09F;}
	.st3{fill:#696E9F;}
	.st4{fill:none;stroke:#F7CD44;stroke-width:9.743;stroke-linejoin:round;stroke-miterlimit:10;}
	.st5{fill:#F7CD44;}
	.st6{clip-path:url(#SVGID_3_);fill:#FFE598;}
	.st7{clip-path:url(#SVGID_5_);fill:#F6A345;}
	.st8{fill:#F6A345;}
	.st9{fill:#FFE598;}
</style>
<symbol  id="_x12_1190916096_13069568_100" viewBox="-17.3 -13.1 34.5 26.3">
	
		<use xlink:href="#_x12_921189504_13069568_100"  width="6.5" height="6.5" x="-3.3" y="-3.3" transform="matrix(1 0 0 1 -14 9.875)" style="overflow:visible;"/>
	
		<use xlink:href="#_x12_921183616_13069568_100"  width="6.5" height="6.5" x="-3.3" y="-3.3" transform="matrix(1 0 0 1 -8.125 -1.625)" style="overflow:visible;"/>
	
		<use xlink:href="#_x12_921176448_13069568_100"  width="6.5" height="6.5" x="-3.3" y="-3.3" transform="matrix(1 0 0 1 8.75 -9.875)" style="overflow:visible;"/>
	
		<use xlink:href="#_x12_921174144_13069568_100_1_"  width="6.5" height="6.5" x="-3.3" y="-3.3" transform="matrix(1 0 0 1 14 6.625)" style="overflow:visible;"/>
</symbol>
<symbol  id="_x12_921174144_13069568_100_1_" viewBox="-3.3 -3.3 6.5 6.5">
	<rect x="-3.3" y="-3.3" class="st0" width="6.5" height="6.5"/>
</symbol>
<symbol  id="_x12_921176448_13069568_100" viewBox="-3.3 -3.3 6.5 6.5">
	<rect x="-3.3" y="-3.3" class="st1" width="6.5" height="6.5"/>
</symbol>
<symbol  id="_x12_921183616_13069568_100" viewBox="-3.3 -3.3 6.5 6.5">
	<rect x="-3.3" y="-3.3" width="6.5" height="6.5"/>
</symbol>
<symbol  id="_x12_921189504_13069568_100" viewBox="-3.3 -3.3 6.5 6.5">
	<rect x="-3.3" y="-3.3" class="st2" width="6.5" height="6.5"/>
</symbol>
<g id="Warstwa_6">
	<path class="st3" d="M164.9,87.6c-0.8,0.7-1.6,1.4-2.4,2.1c-21.4,18-24.3,9.5-37.4,3.2c-7.3-3.5-23.1-51.1-46.2-41.2
		c-20.1,8.6-13.5,65.2-66.2,85.9c6.7-10.3,8.3-12.8,8.3-12.8s-17.8,6.2-21,2C56.4,110.4,52.2-6.3,95.4,32.5s29.7,46.6,43.9,44
		s18.5-4.5,18.5-4.5l-3.9,12.3"/>
	<path class="st3" d="M142.9,87.6c0.8,0.7,1.6,1.4,2.4,2.1c21.4,18,24.3,9.5,37.4,3.2c7.3-3.5,23.1-51.1,46.2-41.2
		c20.1,8.6,13.5,65.2,66.2,85.9c-6.7-10.3-8.3-12.8-8.3-12.8s17.8,6.2,21,2c-56.4-16.4-52.2-133.1-95.4-94.3s-29.7,46.6-43.9,44
		S150,71.9,150,71.9l3.9,12.3"/>
</g>
<g id="Warstwa_3">
	<g>
		
			<use xlink:href="#_x12_1190916096_13069568_100"  width="34.5" height="26.3" x="-17.3" y="-13.1" transform="matrix(-0.4746 -0.2511 -0.2511 0.4746 265.0273 86.9209)" style="overflow:visible;"/>
		
			<use xlink:href="#_x12_1190916096_13069568_100"  width="34.5" height="26.3" x="-17.3" y="-13.1" transform="matrix(0.2493 -0.4755 -0.4755 -0.2493 207.8936 55.0241)" style="overflow:visible;"/>
		
			<use xlink:href="#_x12_1190916096_13069568_100"  width="34.5" height="26.3" x="-17.3" y="-13.1" transform="matrix(0.5181 -0.1409 -0.1409 -0.5181 202.0943 39.8735)" style="overflow:visible;"/>
		
			<use xlink:href="#_x12_1190916096_13069568_100"  width="34.5" height="26.3" x="-17.3" y="-13.1" transform="matrix(-0.2838 0.4557 0.4557 0.2838 233.1743 58.1707)" style="overflow:visible;"/>
		
			<use xlink:href="#_x12_1190916096_13069568_100"  width="34.5" height="26.3" x="-17.3" y="-13.1" transform="matrix(-0.5309 7.997810e-02 7.997810e-02 0.5309 234.9021 77.7669)" style="overflow:visible;"/>
		
			<use xlink:href="#_x12_1190916096_13069568_100"  width="34.5" height="26.3" x="-17.3" y="-13.1" transform="matrix(0.2181 -0.4906 -0.4906 -0.2181 167.9352 53.2569)" style="overflow:visible;"/>
		
			<use xlink:href="#_x12_1190916096_13069568_100"  width="34.5" height="26.3" x="-17.3" y="-13.1" transform="matrix(-0.2528 0.4736 0.4736 0.2528 202.6645 70.7956)" style="overflow:visible;"/>
		
			<use xlink:href="#_x12_1190916096_13069568_100"  width="34.5" height="26.3" x="-17.3" y="-13.1" transform="matrix(-0.2122 -0.4932 -0.4932 0.2122 168.392 83.1892)" style="overflow:visible;"/>
		
			<use xlink:href="#_x12_1190916096_13069568_100"  width="34.5" height="26.3" x="-17.3" y="-13.1" transform="matrix(-0.2278 0.4862 0.4862 0.2278 248.4191 119.6884)" style="overflow:visible;"/>
		
			<use xlink:href="#_x12_1190916096_13069568_100"  width="34.5" height="26.3" x="-17.3" y="-13.1" transform="matrix(6.809453e-02 -0.5325 -0.5325 -6.809453e-02 168.0661 108.7927)" style="overflow:visible;"/>
		
			<use xlink:href="#_x12_1190916096_13069568_100"  width="34.5" height="26.3" x="-17.3" y="-13.1" transform="matrix(-9.808157e-02 0.5278 0.5278 9.808157e-02 179.689 108.8171)" style="overflow:visible;"/>
		
			<use xlink:href="#_x12_1190916096_13069568_100"  width="34.5" height="26.3" x="-17.3" y="-13.1" transform="matrix(-0.1336 0.52 0.52 0.1336 211.4181 121.4137)" style="overflow:visible;"/>
		
			<use xlink:href="#_x12_1190916096_13069568_100"  width="34.5" height="26.3" x="-17.3" y="-13.1" transform="matrix(-5.381992e-02 -0.5342 -0.5342 5.381992e-02 186.9322 125.0288)" style="overflow:visible;"/>
		
			<use xlink:href="#_x12_1190916096_13069568_100"  width="34.5" height="26.3" x="-17.3" y="-13.1" transform="matrix(-0.1292 0.5211 0.5211 0.1292 232.8596 137.1665)" style="overflow:visible;"/>
		
			<use xlink:href="#_x12_1190916096_13069568_100"  width="34.5" height="26.3" x="-17.3" y="-13.1" transform="matrix(7.387103e-02 0.5318 0.5318 -7.387103e-02 243.7868 136.907)" style="overflow:visible;"/>
		
			<use xlink:href="#_x12_1190916096_13069568_100"  width="34.5" height="26.3" x="-17.3" y="-13.1" transform="matrix(0.4189 -0.3358 -0.3358 -0.4189 188.7567 73.3612)" style="overflow:visible;"/>
		
			<use xlink:href="#_x12_1190916096_13069568_100"  width="34.5" height="26.3" x="-17.3" y="-13.1" transform="matrix(0.3804 -0.3788 -0.3788 -0.3804 182.8643 61.0302)" style="overflow:visible;"/>
		
			<use xlink:href="#_x12_1190916096_13069568_100"  width="34.5" height="26.3" x="-17.3" y="-13.1" transform="matrix(-0.3208 0.4305 0.4305 0.3208 230.3664 95.1434)" style="overflow:visible;"/>
		
			<use xlink:href="#_x12_1190916096_13069568_100"  width="34.5" height="26.3" x="-17.3" y="-13.1" transform="matrix(-6.203851e-02 -0.5333 -0.5333 6.203851e-02 211.6348 100.8137)" style="overflow:visible;"/>
		
			<use xlink:href="#_x12_1190916096_13069568_100"  width="34.5" height="26.3" x="-17.3" y="-13.1" transform="matrix(-0.1432 0.5174 0.5174 0.1432 235.844 108.3918)" style="overflow:visible;"/>
		
			<use xlink:href="#_x12_1190916096_13069568_100"  width="34.5" height="26.3" x="-17.3" y="-13.1" transform="matrix(-0.2197 0.4899 0.4899 0.2197 250.2013 106.6701)" style="overflow:visible;"/>
		
			<use xlink:href="#_x12_1190916096_13069568_100"  width="34.5" height="26.3" x="-17.3" y="-13.1" transform="matrix(-0.1012 0.5273 0.5273 0.1012 281.2679 115.9629)" style="overflow:visible;"/>
	</g>
	<g id="_x12_921174144_13069568_100">
	</g>
</g>
<g id="Warstwa_4">
	<path class="st4" d="M123.3,28.8c0,0-17-0.9-29.1-6.6c0,37.6,9.4,59.7,41.6,58.8"/>
	<path class="st4" d="M190.9,28.8c0,0,17-0.9,29.1-6.6c0,37.6-9.4,59.7-41.6,58.8"/>
	<g>
		<g>
			<path id="SVGID_1_" class="st5" d="M196.2,9.4c0,51.1-18.5,92.5-41.3,92.5s-41.3-41.4-41.3-92.5C113.6,9.4,196.2,9.4,196.2,9.4z"
				/>
		</g>
		<g>
			<defs>
				<path id="SVGID_2_" d="M196.2,9.4c0,51.1-18.5,92.5-41.3,92.5s-41.3-41.4-41.3-92.5C113.6,9.4,196.2,9.4,196.2,9.4z"/>
			</defs>
			<clipPath id="SVGID_3_">
				<use xlink:href="#SVGID_2_"  style="overflow:visible;"/>
			</clipPath>
			<path class="st6" d="M109.2,6.1c0,0-0.5,45.1,2.7,61.7s35.2,34.2,35.2,34.2s2.2-1.2-3.9-16.2c-16.1-39.5-4.5-59.9-6-79.7
				C137.2,6.1,109.2,6.1,109.2,6.1z"/>
		</g>
		<g>
			<defs>
				<path id="SVGID_4_" d="M196.2,9.4c0,51.1-18.5,92.5-41.3,92.5s-41.3-41.4-41.3-92.5C113.6,9.4,196.2,9.4,196.2,9.4z"/>
			</defs>
			<clipPath id="SVGID_5_">
				<use xlink:href="#SVGID_4_"  style="overflow:visible;"/>
			</clipPath>
			<path class="st7" d="M180.8,8c6.7,40.5-1.5,92.3-18.9,95.3c14.8-22.7,15.1-91.2,10.3-99.2C172.2,4.1,174.1-32.5,180.8,8z"/>
		</g>
	</g>
	<circle class="st5" cx="154.9" cy="117.7" r="8.4"/>
	<path class="st5" d="M190.3,143.2c0,0-19.8-5.9-29.9-7.2c-10.1-1.3,2.1-41.7,2.1-41.7h-7.6h-7.6c0,0,12.2,40.5,2.1,41.7
		c-10.1,1.3-29.9,7.2-29.9,7.2s0,10.7,0,11.1c0,2.4,11.8,9.1,36.4,9.1c25.7-0.7,34.4-6.6,34.4-9.1
		C190.3,153.9,190.3,143.2,190.3,143.2z"/>
	<ellipse class="st5" cx="154.9" cy="10.6" rx="41.1" ry="10.6"/>
	<ellipse class="st8" cx="154.9" cy="10.6" rx="36.2" ry="7.6"/>
	<path class="st9" d="M149.4,136c-0.3,3.5,5.2,4.8,8.1,4.5c2.9-0.3,14,1.1,14,6c-16.7,7.6-51.3-0.1-52.1-3.4
		C119.5,143.2,149.5,135.2,149.4,136z"/>
	<path class="st9" d="M151.3,110.4c0.1,2.8,3.5,2.3,5.4,2.3s1.3,7.2-3.2,8s-7-2.6-7-2.6s0.1-4.4,2.7-6.6S151.3,110.4,151.3,110.4z"
		/>
</g>
<g id="Warstwa_5">
	<g>
		
			<use xlink:href="#_x12_1190916096_13069568_100"  width="34.5" height="26.3" x="-17.3" y="-13.1" transform="matrix(0.4796 0.2018 -0.2018 0.4796 76.218 37.6664)" style="overflow:visible;"/>
		
			<use xlink:href="#_x12_1190916096_13069568_100"  width="34.5" height="26.3" x="-17.3" y="-13.1" transform="matrix(0.4796 0.2018 0.2018 -0.4796 54.1465 82.8736)" style="overflow:visible;"/>
		
			<use xlink:href="#_x12_1190916096_13069568_100"  width="34.5" height="26.3" x="-17.3" y="-13.1" transform="matrix(-0.2 0.4803 0.4803 0.2 112.026 108.7814)" style="overflow:visible;"/>
		
			<use xlink:href="#_x12_1190916096_13069568_100"  width="34.5" height="26.3" x="-17.3" y="-13.1" transform="matrix(-0.4881 0.1803 0.1803 0.4881 118.9192 122.9111)" style="overflow:visible;"/>
		
			<use xlink:href="#_x12_1190916096_13069568_100"  width="34.5" height="26.3" x="-17.3" y="-13.1" transform="matrix(0.235 -0.4642 -0.4642 -0.235 87.3527 107.9047)" style="overflow:visible;"/>
		
			<use xlink:href="#_x12_1190916096_13069568_100"  width="34.5" height="26.3" x="-17.3" y="-13.1" transform="matrix(0.5057 -0.1226 -0.1226 -0.5057 84.0099 89.1356)" style="overflow:visible;"/>
		
			<use xlink:href="#_x12_1190916096_13069568_100"  width="34.5" height="26.3" x="-17.3" y="-13.1" transform="matrix(-0.1686 0.4922 0.4922 0.1686 150.7503 107.072)" style="overflow:visible;"/>
		
			<use xlink:href="#_x12_1190916096_13069568_100"  width="34.5" height="26.3" x="-17.3" y="-13.1" transform="matrix(0.2036 -0.4788 -0.4788 -0.2036 115.7257 93.1098)" style="overflow:visible;"/>
		
			<use xlink:href="#_x12_1190916096_13069568_100"  width="34.5" height="26.3" x="-17.3" y="-13.1" transform="matrix(0.247 0.4579 0.4579 -0.247 147.7509 78.2164)" style="overflow:visible;"/>
		
			<use xlink:href="#_x12_1190916096_13069568_100"  width="34.5" height="26.3" x="-17.3" y="-13.1" transform="matrix(0.1784 -0.4888 -0.4888 -0.1784 67.3782 49.8224)" style="overflow:visible;"/>
		
			<use xlink:href="#_x12_1190916096_13069568_100"  width="34.5" height="26.3" x="-17.3" y="-13.1" transform="matrix(-2.021615e-02 0.5199 0.5199 2.021615e-02 145.8772 53.4724)" style="overflow:visible;"/>
		
			<use xlink:href="#_x12_1190916096_13069568_100"  width="34.5" height="26.3" x="-17.3" y="-13.1" transform="matrix(4.956539e-02 -0.5179 -0.5179 -4.956539e-02 134.6551 54.4424)" style="overflow:visible;"/>
		
			<use xlink:href="#_x12_1190916096_13069568_100"  width="34.5" height="26.3" x="-17.3" y="-13.1" transform="matrix(8.453892e-02 -0.5134 -0.5134 -8.453892e-02 102.9492 44.9943)" style="overflow:visible;"/>
		
			<use xlink:href="#_x12_1190916096_13069568_100"  width="34.5" height="26.3" x="-17.3" y="-13.1" transform="matrix(9.761170e-02 0.5111 0.5111 -9.761170e-02 126.2773 39.4118)" style="overflow:visible;"/>
		
			<use xlink:href="#_x12_1190916096_13069568_100"  width="34.5" height="26.3" x="-17.3" y="-13.1" transform="matrix(8.014924e-02 -0.5141 -0.5141 -8.014924e-02 80.9044 31.6203)" style="overflow:visible;"/>
		
			<use xlink:href="#_x12_1190916096_13069568_100"  width="34.5" height="26.3" x="-17.3" y="-13.1" transform="matrix(-0.1168 -0.507 -0.507 0.1168 70.3783 32.8048)" style="overflow:visible;"/>
		
			<use xlink:href="#_x12_1190916096_13069568_100"  width="34.5" height="26.3" x="-17.3" y="-13.1" transform="matrix(-0.3757 0.36 0.36 0.3757 128.9323 89.4444)" style="overflow:visible;"/>
		
			<use xlink:href="#_x12_1190916096_13069568_100"  width="34.5" height="26.3" x="-17.3" y="-13.1" transform="matrix(-0.3348 0.3982 0.3982 0.3348 135.6743 100.8441)" style="overflow:visible;"/>
		
			<use xlink:href="#_x12_1190916096_13069568_100"  width="34.5" height="26.3" x="-17.3" y="-13.1" transform="matrix(0.2729 -0.443 -0.443 -0.2729 86.9031 71.9736)" style="overflow:visible;"/>
		
			<use xlink:href="#_x12_1190916096_13069568_100"  width="34.5" height="26.3" x="-17.3" y="-13.1" transform="matrix(0.1055 0.5095 0.5095 -0.1055 104.5006 64.8989)" style="overflow:visible;"/>
		
			<use xlink:href="#_x12_1190916096_13069568_100"  width="34.5" height="26.3" x="-17.3" y="-13.1" transform="matrix(9.403493e-02 -0.5117 -0.5117 -9.403493e-02 80.4829 59.6527)" style="overflow:visible;"/>
		
			<use xlink:href="#_x12_1190916096_13069568_100"  width="34.5" height="26.3" x="-17.3" y="-13.1" transform="matrix(0.1702 -0.4917 -0.4917 -0.1702 66.7705 62.5418)" style="overflow:visible;"/>
		
			<use xlink:href="#_x12_1190916096_13069568_100"  width="34.5" height="26.3" x="-17.3" y="-13.1" transform="matrix(5.264739e-02 -0.5176 -0.5176 -5.264739e-02 35.9865 56.2265)" style="overflow:visible;"/>
	</g>
</g>
</svg>
