<?xml version="1.0" encoding="utf-8"?>
<!-- Generator: Adobe Illustrator 21.1.0, SVG Export Plug-In . SVG Version: 6.00 Build 0)  -->
<svg version="1.1" xmlns="http://www.w3.org/2000/svg" xmlns:xlink="http://www.w3.org/1999/xlink" x="0px" y="0px"
	 viewBox="0 0 149.8 141.7" style="enable-background:new 0 0 149.8 141.7;" xml:space="preserve">
<style type="text/css">
	.st0{fill:#8487C1;}
	.st1{fill:#EDEDED;}
	.st2{fill:none;stroke:#B3B3B3;stroke-width:0.3261;stroke-miterlimit:10;}
	.st3{fill:#B3B3B3;}
	.st4{fill:#CCCCCC;}
	.st5{fill:#0A9575;}
	.st6{fill:#35B399;}
	.st7{fill:#F4B405;}
	.st8{fill:#F7CD44;}
	.st9{fill:#6C6D9F;}
	.st10{fill:#F8B277;}
	.st11{fill:#F7CD45;}
	.st12{fill:#FBCFA5;}
	.st13{fill:#088063;}
	.st14{fill:#6E6981;}
	.st15{fill:#20AE88;}
	.st16{fill:#DADADA;}
	.st17{fill:#FFFFFF;}
	.st18{fill:none;stroke:#B3B3B3;stroke-width:0.9784;stroke-miterlimit:10;}
</style>
<g id="Warstwa_2">
	<polygon class="st0" points="126.8,23.8 13.2,17.6 36.3,110.6 126.8,96.6 	"/>
	<path class="st1" d="M76,124.8c2.9-1.3,11.4,1,16,1.4c4.6,0.4,11.6-1.7,13.3-1.7s3-0.5,7.9-3.2c4.8-2.6,20-4.5,16.9-6.1
		c-3.1-1.6-32.8-0.4-32.8-0.4s-14.9,1.6-15.1,1.7c-0.2,0.2-22.3,6.5-23.5,7.4S76,124.8,76,124.8z"/>
	<path class="st1" d="M114.7,137c25.1-0.4,31.9-3.7,30.2-12c-0.8-3.6-8-9.9-8-9.9l-2.4,12.8l-10.4,7.1"/>
	<path class="st2" d="M59.7,112.1c0,0-7.4-0.7-8.7-1.8"/>
</g>
<g id="Warstwa_1">
	<g>
		<path class="st3" d="M134.6,111.9c-1.5-0.9-3.4-1.7-5.7-2.1c-9.8-1.9-18.3,1.8-25.8,1.3c-7.6-0.5-27.3-8.4-27.3-8.4l-8.6-0.9
			c0,0-8.1,4.4-6.3,4.2c7.3-0.8,21,11.7,21,11.7s13.8,6.5,24.3-0.4s53.4,2.6,16.5,8.1c0,0,6-2.4,10.5-4.1
			C137.8,119.6,136.8,115,134.6,111.9z"/>
		<path class="st4" d="M140.6,127.1c0.1-4.4-0.9-6.9-2.6-9.9c-0.9-1.6-1.6-4.3-3.3-5.3c2.1,3.1,3.2,7.7-1.4,9.4
			c-4.6,1.7-18.6,8.3-18.6,8.3l0.3,7C115,136.6,140.4,136,140.6,127.1z"/>
	</g>
	<g>
		<path class="st5" d="M110.8,113h-6.1c-0.2,0.4,0.3,2.8-1.5,4.2c0,0,0,0,0,0c1.3,1.4,3.8,1.2,4.8,1.2c1,0.1-1.9,2.8-3.8,3.4
			c-1.9,0.6-4.3,1.4-5.6,0.4c0,0.1,0,0.2,0,0.3c0,2.1,0.9,2.7,0.9,2.7s5,2.2,7.3-0.5c1.9-2.2,3.2-3.3,4.1-4.2c0.5-0.4,0.7-1,0.7-1.6
			L110.8,113z"/>
		<path class="st6" d="M104.5,122.4c1.9-0.6,4.5-3.9,3.5-4c-1-0.1-3.5,0.2-4.8-1.2c0,0,0,0,0,0c-0.1,0-0.1,0.1-0.2,0.1
			c-2.3,1.6-4,0.7-4.4,4.9C99.9,123.2,102.6,123,104.5,122.4z"/>
	</g>
	<g>
		<path class="st5" d="M89.5,114.1c-0.2,0.3,0.2,1.7,0,2.2c0,0,0,0,0,0c1.5,0.5,3.8,1.5,3.9,2.2c0.1,0.7-2.4,3.1-6.1,4
			c-2.4,0.6-5.1,0.7-6.4-0.2c0.1,1.7,0.5,2,0.5,2s3.4,1.9,7.5,0.8c4.1-1.1,8.6-4.4,8.6-4.4V115L89.5,114.1z"/>
		<path class="st6" d="M87.2,122.5c3.8-0.9,6.3-3.3,6.1-4c-0.1-0.7-2.4-1.6-3.9-2.2c0,0,0,0,0,0c-0.1,0.1-0.2,0.2-0.3,0.2
			c-0.8,0-8,0.7-8.3,5.2c0,0.2,0,0.4,0,0.5C82.2,123.2,84.8,123,87.2,122.5z"/>
	</g>
	<g>
		<path class="st7" d="M93.9,99.5c-0.2,2.5,1.4,11.9,2,16.4c1.6-0.2,2.8-0.5,2.8-0.5s0.2-12.9,0.3-20.4l1.1-16.9c0,0-2,0.3-2.6,1.8
			C95.9,84.2,94.4,93.7,93.9,99.5z"/>
		<path class="st7" d="M111.1,99.8c-0.1-14.9,4.6-14.9,2.8-25.1c-0.3-1.6-3.3-9.6-3.3-9.6l-18.9,1l0.2,0.5l-1.3,0.1
			c0,0-1.2,4.5-1.4,6.1c-0.3,2,0.3,4.2,0.7,8.5c2.7-6.7,4.6-13.1,5.9-12.6c1.9,0.8,11.5,0.9,11.5,0.9s3.2,9.2,1.1,15.8
			c-2.1,6.6-0.9,10.5,0,14c0.9,3.5,1.8,16.8,1.8,16.8c1.3-0.3,2.3-0.6,2.3-0.6S111.7,107,111.1,99.8z"/>
		<path class="st8" d="M108.8,85.4c2.1-6.6-1.3-16.4-1.3-16.4s-9.8-0.1-11.7-0.9c-1.2-0.5-6,8-8.7,14.7c0.2,2.3,0.4,4.6,0.7,6.9
			c-1.1,7.6-1.7,22.6,0.9,24.8c1.8,1.6,4.9,1.6,7.2,1.4c-0.5-4.6-1.7-15.5-0.4-17.7c1.6-2.8,1.7-21.3,2.5-16.5
			c1,5.5,1.1,13.4,1.1,13.4c0-0.2,0,0.4,0,0.3c0.5,6.9,2.1,12.5,3.4,20.2c2.1,1.5,5.5,1.1,7.8,0.6c0,0-0.7-13.5-1.6-16.9
			C107.6,95.7,106.6,92,108.8,85.4z"/>
	</g>
	<path class="st9" d="M110.2,62.6l0.7,3.2c0,0-12.6,3.7-15.6,1s-0.7-3.5-0.7-3.5S102.6,64.6,110.2,62.6z"/>
	<g>
		<path id="arm_5_" class="st10" d="M77.6,48.8c1,2.3,5,9.7,10.4,15.1c0.8,0.8,3.9,2.6,3.9,2.6c0.2,0,1.5-2.8,1.6-3
			c2.3-1.6,2.9-8.2,4.3-13.2c1.9-6.9,3.2-14.2-0.9-15.9c-2.7-1.2-4.3,1-5.9,7.1c-0.8,3.4,0.5,8.6-0.2,14.2
			c-2.8-2.9-9.2-8.4-10.9-9.2C79.8,46.5,78.7,47.4,77.6,48.8z"/>
	</g>
	<path id="arm_4_" class="st10" d="M95.4,34.5l-2.7,26.6l-3.9-0.5c0,0-0.2-7-0.2-8.8C88.5,50.1,89.7,36,95,34.5"/>
	<g id="rest_1_">
		<path id="blouse_1_" class="st11" d="M112.5,33.5c3.4,9.7-2.6,22.8-2.3,29.2c0,0-12.9,4-16.3,1.5c-1.7-9.2-3.1-8.5-3.1-8.5
			s-6.3-2.5-2-9.6c3.1-3.1,3.9-6.9,3.9-6.9s0.8-4.7,4-5.8C101,31.2,108.8,30.2,112.5,33.5"/>
		<path id="blouse_shadow_1_" class="st7" d="M106.9,62.2l-2.3,2l-2.2-7.5c0,0,2.4-4.3,2.2-6.6c-0.6-6.3,2.2-11.6,2.9-14.2
			s0.8-3.9,3.1-3.2L106.9,62.2z"/>
		<path id="zipper_3_" class="st0" d="M94.8,58.9c-1-0.7-2-2.2-2.1-4.1c-0.1-1.4,0.3-3.5,2.7-5.7c2.7-2.5,3.6-7.1,3.6-7.1l0.6,0.1
			c0,0.2-0.9,4.8-3.8,7.5c-1.7,1.6-2.5,3.4-2.4,5.2c0.1,1.7,1,3,1.8,3.6c1.4,1.1,2.1,3.2,2.1,3.3l-0.7-0.1
			C96.5,61.5,96,59.8,94.8,58.9z"/>
		<path id="collar4_1_" class="st9" d="M104,36.3l-5.3,5c0,0-0.7,0.1-1.7,0.2c-1,0.1-2.2-3.2-2.2-3.2s0.3-3,0.2-3.7
			c0-0.7,7.3-7.1,7.3-7.1l2.5,3.3L104,36.3z"/>
		<path id="neck_1_" class="st12" d="M98.2,27.5c0,0,2,0.3,3.7,1.7c1.7,1.5,3.1,2.5,3.5,6s-7.8,8.8-7.5,6.2c-1.3-5-1.2-6.9-2.4-8.4
			L98.2,27.5z"/>
		<path id="neck_shadow_1_" class="st10" d="M95.4,32.8c0.4,0.5,1,3,1.4,3.8c0.7,0.1,1.3,0.1,2.1,0c2.7-0.3,4.9-1.8,5.7-4.3
			c-0.7-1.4-1.6-2.1-2.7-3.1c-1.7-1.5-3.7-1.7-3.7-1.7L95.4,32.8z"/>
		<path id="collar3_2_" class="st0" d="M94.4,35.1c-0.4,0.7-0.6,4.9,0,5.6c1.4,1.5,4.4,1.5,4.4,1.5s-1.6-1.6-2.4-3.3
			c-0.6-1.2-0.1-3.9-0.5-5.1C95.8,33.8,95.7,33,94.4,35.1z"/>
		<path id="collar2_1_" class="st0" d="M102.2,35.1c0.4-0.4,0.8-1.1,1.4-2.1c1.1-2-0.5-4.6-0.5-4.6s-0.1-0.8,1.7,0.9
			c1.8,1.7,1.8,4.5,1.1,6.4c-0.7,1.9-3,5-5.8,6c0.7-1.1,1.3-3.5,1.5-5C101.7,36,101.9,35.5,102.2,35.1z"/>
		<path id="collar1_1_" class="st9" d="M106,35.7c0.7-1.9,0.7-4.7-1.1-6.4c-0.1-0.1-0.1-0.1-0.2-0.2c0.5,1.7,0.8,3.9-0.4,5.2
			c-1.4,1.6-1.3,4.7-1.8,5.5c-0.4,0.7-1.2,1.2-1.4,1.4C103.5,40,105.3,37.4,106,35.7z"/>
		<g id="zipper_2_">
			<polygon class="st9" points="98.6,44.9 95.4,44.4 96,45.2 98.9,45.8 100.2,42 100.2,41.5 			"/>
			<polygon class="st0" points="98.9,41.5 95.4,44.4 98.6,44.9 100.2,41.5 			"/>
			<polygon class="st9" points="96.4,44.1 98.9,41.9 99.2,42 98.2,44.3 			"/>
		</g>
		<path id="arm_3_" class="st12" d="M93.1,46.1c0.8,2.4,4,10.1,8.8,16.1c0.6,0.7,2.4,2.1,3.2,2.7c0.2,0.2,0.6,0.1,0.7-0.1
			c0.5-0.7,1.5-2.3,1.5-2.5c2.4-1.4,3.7-7.8,5.6-12.7c2.6-6.6,2.1-14.5-1.7-16.6c-2.6-1.5-1.9,1.2-4.1,7.1
			c-1.2,3.3-0.4,8.6-1.7,14.1C103,51,97.2,44.9,95.5,44C95.5,44,94.3,44.8,93.1,46.1z"/>
		<path id="arm_shadow_1_" class="st10" d="M105.6,64.9l1.3-1c2.1-1.8,4.6-9.4,6.6-14.4c2.6-6.6,2.1-14.5-1.7-16.6
			c-0.8-0.5-1.7-0.7-2.1-0.3c2.6,2.3,4.2,6.1,4.2,7.9c0,2.4-0.3,7.4-1.9,10.5C110.6,53.6,106.9,62.4,105.6,64.9z"/>
	</g>
	<g id="head_2_">
		<path id="hair_back_1_" class="st13" d="M100.7,11.3c0,0-11.1-2.3-16.1,2s2.8,18,3.7,21.7c3.2-4.8,15.6-5.4,15.6-5.4L100.7,11.3z"
			/>
		<path id="head_3_" class="st12" d="M89.6,9c6.9-1.8,14.2,0.4,16.9,7s-1.3,14-7.9,16.7c-5.1,2.1-9.6,0.1-11.3-4.6
			c-0.5-1.4-0.2-3.2-1.2-4.9C83.3,18.4,87.9,9.5,89.6,9z"/>
		<path class="st10" d="M106.5,16C103.8,9.4,96,5.9,89.6,9c-3.4,1.7-4.6,7.6-4.4,10.8c2.6-3.5,5.9-5.3,7.3-6
			c3.8,3.3,7.3,13.1,7.5,15.3c0.1,1.5,1.1,1,0.9,2.5C106.1,28.3,108.9,21.8,106.5,16z"/>
		<path id="eyebrow2_1_" class="st14" d="M92.6,18.4c0.3-0.3,0.7-0.4,1.1-0.5c0.4,0,0.8,0.1,1.2,0.2c0.2,0.1,0.4,0.1,0.5,0.2
			c0.2,0.1,0.3,0.2,0.5,0.3c0.2,0.1,0.3,0.2,0.4,0.4c0.1,0.1,0.3,0.3,0.4,0.4l-0.1,0.1c-0.2-0.1-0.3-0.2-0.5-0.3L96,19.1
			c-0.1-0.1-0.2-0.1-0.2-0.1c-0.3-0.2-0.6-0.3-1-0.4c-0.3-0.1-0.7-0.1-1-0.1c-0.3,0-0.7,0-1.1,0L92.6,18.4z"/>
		<path id="eyebrow1_3_" class="st14" d="M88.8,19.2l-0.6,0c-0.2,0-0.4,0-0.6,0.1c-0.2,0.1-0.4,0.1-0.6,0.2c-0.1,0-0.2,0.1-0.3,0.2
			c-0.1,0.1-0.2,0.1-0.3,0.2l-0.1-0.1c0.1-0.1,0.2-0.2,0.3-0.2c0.1-0.1,0.2-0.2,0.3-0.2c0.1-0.1,0.2-0.1,0.3-0.2
			c0.1,0,0.1-0.1,0.2-0.1l0.2-0.1c0.2-0.1,0.5-0.1,0.7-0.1s0.5,0,0.7,0.2L88.8,19.2z"/>
		<path id="eyebrow1_2_" class="st14" d="M91.7,30l0.7,0.1c0.2,0,0.4,0,0.6,0s0.4-0.1,0.6-0.2c0.1,0,0.2-0.1,0.3-0.1
			c0.1-0.1,0.2-0.1,0.3-0.2l0.1,0.1c-0.1,0.1-0.2,0.2-0.3,0.3c-0.1,0.1-0.2,0.2-0.3,0.2c-0.1,0.1-0.2,0.1-0.3,0.2
			c-0.1,0-0.1,0.1-0.2,0.1l-0.2,0.1c-0.2,0-0.5,0.1-0.7,0c-0.3,0-0.5-0.2-0.7-0.5L91.7,30z"/>
		<g id="eyes_1_">
			
				<ellipse id="eye2_2_" transform="matrix(0.9384 -0.3455 0.3455 0.9384 -2.741 32.0384)" class="st14" cx="88.5" cy="23.7" rx="0.6" ry="1.1"/>
			
				<ellipse id="eye1_1_" transform="matrix(0.9384 -0.3455 0.3455 0.9384 -2.0902 34.137)" class="st14" cx="94.7" cy="22.9" rx="0.7" ry="1.1"/>
		</g>
	</g>
	<g id="hair_1_">
		<path class="st5" d="M82.5,16.4C80.7,24.5,88.2,35,88.2,35s-1.4-4.2-3.6-11.6c-1.5-5.3,2.1-8.5,5-10.6c-0.5,0.5-3.7,3.6-3.8,5l0,0
			c0.1-0.4,4.1-4,4.6-4.6c0.3-0.3,0.6-0.6,0.8-0.8c0,0,0,0,0.1,0c0,0,0,0,0,0l0,0l0,0c0,0,3,1.3,5.7,6c1.3,2.3,3.4,7.1,2.9,16
			c1.4-4.3,1.7-5.6,2.1-6.5c-0.3,6-0.9,7.9-0.9,7.9s4-2.9,6.9-6.1c0.5-1.1,0.1-7.5,0.1-7.5s0.5,2.5,0.6,5.2c0,0.6,0.1,1.5,0.1,1.9
			c1.2-1.5,3-3.6,2.9-4.8c-0.3-4-2.9-21.7-18.2-19.4C92.2,5.1,91.5,6,91.1,7C88.2,7.7,83.9,10.1,82.5,16.4z"/>
		<path class="st15" d="M94,6.3c0.2,0-0.5,0.1-0.8,0.1c-0.3,0,1,0.6,1,0.6S93,7,92.8,7.2s-0.2,0.1-0.2,0.1c1.6,0.3,1.2,0.5,1.2,0.5
			s-1.2,0-1.2,0.1c0,0.1,1.2,0.5,1.2,0.5s-1.1-0.1-1.3,0.3c-0.2,0.4,0.5,1,3,1.5c0,0,0.1,0,0.1,0l0.3,0.1l0.3,0.2
			c0.1,0.1,0.2,0.1,0.3,0.2l0.3,0.2c0.9,0.5,1.7,1.2,2.4,2c0.7,0.8,1.3,1.7,1.7,2.7c0.5,1,0.9,2,1.2,3c-0.1-1.1-0.4-2.2-0.7-3.3
			c-0.4-1.1-0.9-2.1-1.6-3c-0.7-0.9-1.5-1.7-2.5-2.4c0,0-0.1-0.1-0.1-0.1c0.5,0.2,1,0.4,1.4,0.7c0.3,0.2,0.6,0.4,0.9,0.6l0.2,0.2
			l0.2,0.2c0.1,0.1,0.3,0.2,0.4,0.4c0.5,0.5,1,1.1,1.4,1.6s0.7,1.2,1.1,1.9c0.3,0.6,0.6,1.3,0.8,2s0.5,1.4,0.7,2.1s0.4,1.4,0.6,2.1
			c-0.2-1.5-0.5-2.9-1-4.3c-0.2-0.7-0.5-1.4-0.8-2.1c-0.3-0.7-0.6-1.3-1-2c-0.4-0.6-0.8-1.2-1.4-1.8c-0.3-0.2-0.5-0.5-0.8-0.7
			c0,0,0.1,0,0.1,0.1c0.9,0.6,1.7,1.3,2.4,2.1c0.7,0.8,1.4,1.7,2,2.6c-0.4-1-0.9-2-1.6-3c-0.6-0.9-1.4-1.8-2.3-2.5
			c-0.9-0.7-1.9-1.3-3-1.7l0.1,0c1,0.2,2,0.6,2.9,1.1c0.9,0.5,1.8,1.2,2.6,1.9c0.8,0.7,1.5,1.6,2.2,2.4c-0.5-1-1.1-1.9-1.8-2.8
			c-0.3-0.4-0.7-0.7-1-1.1c0.3,0.2,0.5,0.5,0.8,0.7c0.8,0.7,1.5,1.6,2.2,2.4c-0.5-1-1.1-1.9-1.8-2.8c-0.7-0.9-1.5-1.6-2.5-2.3
			c-0.3-0.2-0.7-0.4-1-0.6c0.3,0.1,0.6,0.2,0.9,0.4l0.2,0.1l0.2,0.1c0.1,0.1,0.3,0.2,0.5,0.3c0.6,0.4,1.1,0.9,1.6,1.4
			c0.5,0.5,0.9,1.1,1.4,1.7c0.4,0.6,0.8,1.2,1.2,1.8c0.4,0.6,0.7,1.3,1,1.9c0.3,0.7,0.6,1.3,1,2c-0.5-1.4-1-2.7-1.7-4
			c-0.3-0.7-0.7-1.3-1.1-1.9c-0.4-0.6-0.8-1.2-1.3-1.8c-0.5-0.6-1-1.1-1.7-1.5c-0.3-0.2-0.7-0.5-1-0.6c0.2,0.1,0.5,0.2,0.7,0.4
			c0.9,0.5,1.8,1.2,2.6,1.9c0.8,0.7,1.5,1.6,2.2,2.4c-0.5-1-1.1-1.9-1.8-2.8c-0.7-0.9-1.5-1.6-2.5-2.3c-1-0.6-2-1.1-3.1-1.4
			c-0.3-0.1-0.6-0.1-0.9-0.2l-0.4-0.1l-0.4,0c-0.1,0-0.3,0-0.4,0c-0.1,0-0.2,0-0.3,0c-1.3-0.1-2.1,0-2.1,0s0.5,0.4,0.2,0.3
			c-0.3-0.1-1.8,0.4-1.9,0.5C93,6.2,93.8,6.3,94,6.3z"/>
	</g>
	<path class="st16" d="M79.1,39.8c2.2,3.7,9.2,23.4,8.2,31.4c-1.9,15.9-4.4,37.5-27.5,48.7c-4.4,9.8,5.1,7.5,13.3,6.8
		c13.8-8.5,20.2-23,22.8-38.8c2.6-15.8,2.9-34-4.3-46.6C89.4,39.5,79.1,39.8,79.1,39.8z"/>
	<path id="hand_2_" class="st10" d="M85.6,45.2c-2-0.7-3.1-1-5.9,1.2c0,0-0.7,0.3-1.4,1.2c-0.3,0.2-1,0.7-1.7,1.7
		c-0.8,1.4,2.4,2,2.4,2s0.5-0.8,1.2-1.2c0,0,0.1,0,0.1,0s0,0,0,0c0.5-0.2,1.9-1,2.5-0.6c1,0.2,2,0.1,2.5-0.2
		c0.3-0.2,0.6-0.6,0.6-0.8c0.3-0.2,0.8-1.2,1.1-1.5C88.4,46.1,87.9,46,85.6,45.2z"/>
	<g>
		<path class="st12" d="M96,44.4c-0.8-0.9-1.6-1.3-1.9-1.5c-0.8-0.8-1.6-1-1.6-1c-0.5-0.3-1-0.5-1.4-0.7c-1.5,0.4-4.9,2.2,1.7,4
			c0.9,0.3,1.4,1.1,1.2,1.6C93.9,46.8,97,45.7,96,44.4z"/>
		<path class="st10" d="M92.8,45.2c-6.6-1.8-3.2-3.5-1.7-4c-2.1-0.9-3.1-0.4-4.6,0.4c-2.1,1.1-2.6,1.3-1.2,2.2
			c0.3,0.2,1,1.1,1.3,1.3c0.1,0.1,0.4,0.5,0.7,0.7c0.6,0.2,1.6,0.2,2.5-0.2c0.5-0.6,2.1,0,2.6,0.2c0,0,0,0,0,0s0,0,0.1,0
			c0.8,0.2,1.4,1,1.4,1C94.1,46.4,93.7,45.5,92.8,45.2z"/>
	</g>
	<path class="st17" d="M91.5,41.3c-5.7-3.4-11,10.9-9.3,24.7c0,0-7.5,1.1-13.7-2.4c-0.8-11-0.6-20.8,7.5-26.1
		C79.3,37,84.9,36.6,91.5,41.3z"/>
	<path class="st1" d="M73,126.8c0,0-15.8,3.9-20.6-3.9c-3.1-4.9-5.3-16.7,5.1-21c11.8-4.9,19.9,1.5,19.9,1.5s-7.5-2.2-10.9,1.1
		C61.6,109.3,54.6,126.8,73,126.8z"/>
	<path class="st3" d="M121.2,114.3c2.7,1.2,6.9,8.8,3.7,13.7s-5.9,8.8-9.5,8.8s-9.3,0.1-8.3-7.9c1-8,5.8-14.8,5.8-14.8L121.2,114.3z
		"/>
	<path class="st4" d="M120.3,116.3c2.2,1,6.9,8.8,4.3,12.8c-2.6,4-6.1,4.5-9,4.5c-2.9,0-7.2-0.3-6.8-5.4c0.5-6.6,4.7-12,4.7-12
		L120.3,116.3z"/>
	<path class="st3" d="M119,120.3c2.8,0.2,3.4,7.4,5.2,8.6l-9.7-0.6l-1.7-5.7L119,120.3z"/>
	<path class="st1" d="M117.5,131c-4.9,0-7.5-1.5-7-6.4c0.5-4.8,4.2-4.8,5.7-4.8s3.8,0.7,3.8,0.7s-3.7-0.4-4.8,1.5
		C112.4,126.8,115.4,130.8,117.5,131"/>
	<path class="st1" d="M116.5,137c-10.5,0-16.3-3.3-15.2-13.7c1.1-10.4,9-10.3,12.4-10.3s8.2,1.4,8.2,1.4s-7.9-0.9-10.3,3.3
		C105.4,128,112.1,136.5,116.5,137"/>
	<path class="st1" d="M115.7,133.6c-7.9,0-12.2-2.5-11.4-10.3c0.8-7.8,7.9-8.5,10.4-8.5c2.5,0,5.6,1.6,5.6,1.6s-6.5-0.3-8.3,2.8
		C107.4,126.9,112.4,133.2,115.7,133.6"/>
	<path class="st2" d="M76.1,38.1c0,0,6.4-0.4,10.8,1.6"/>
	<path class="st2" d="M74.7,39.2c0,0,6.4-0.4,10.8,1.6"/>
	<path class="st2" d="M73.9,40.2c0.5,0.1,6.4,0,10.8,1.6"/>
	<path class="st2" d="M70.7,46.8c0.5,0.1,6.4,0,10.8,1.6"/>
	<path class="st2" d="M70.4,48.8c0.7,0.2,6.4,0,10.8,1.6"/>
	<path class="st2" d="M69.9,52.9c0.7,0.1,6.4,0,10.8,1.6"/>
	<path class="st2" d="M69.6,54.9c0.7,0.1,6.4,0,10.8,1.6"/>
	<path class="st2" d="M69.5,57.1c0.6,0.2,6.4,0.8,10.8,1.6"/>
	<path class="st2" d="M71.4,45c0.5,0.1,6.4,0,10.8,1.6"/>
	<path class="st2" d="M53.9,124.1c1.7,0.9,2.6,1.9,10.4,2.7"/>
	<path class="st2" d="M62.9,125.4c0,0-9.1-1.4-10.2-3.3"/>
	<path class="st2" d="M60.6,121.9c-4.6-0.3-8.6-1.6-9-2.3"/>
	<path class="st2" d="M59.7,119.6c-3-0.3-7.8-1.6-8.7-2.7"/>
	<path class="st2" d="M59.7,114.4c-2.6-0.4-7.8-1.1-8.9-1.9"/>
	<path class="st2" d="M60,112.5c-2.6-0.4-7.8-1.1-8.9-1.9"/>
	<path class="st2" d="M60.9,110.3c-2.6-0.4-7.8-1.1-8.9-1.9"/>
	<path class="st2" d="M61.7,108.1c-6.6-1.6-8.5-2-8.5-2"/>
	<path class="st2" d="M54.9,104.3c1.1-0.2,6.1,0.9,8.6,1.9"/>
	<path class="st2" d="M57.3,102.1c0,0,3-1.3,8.2,0.9"/>
	<path class="st2" d="M69.4,101.8c0,0-1.7-1.9-3.6-1.7"/>
	<path class="st2" d="M137.1,117.5c1.9,1.8,3.5,7.4,3.5,7.4"/>
	<path class="st2" d="M136.7,120.1c1.9,1.8,3.5,7.4,3.5,7.4"/>
	<path class="st2" d="M134.9,122c1.2,2.2,2.9,7.9,2.9,7.9"/>
	<path class="st2" d="M129.9,124.6c1.2,2.2,2.9,7.9,2.9,7.9"/>
	<path class="st2" d="M127.6,125.4c1.2,2.2,2.9,7.9,2.9,7.9"/>
	<path class="st2" d="M125.6,126c1.2,2.2,2.9,7.9,2.9,7.9"/>
	<path class="st2" d="M123.7,130.1c0.7,2.2,1.6,4.6,1.6,4.6"/>
	<path class="st2" d="M122.3,131.7c0.6,2.3,1.2,3.3,1.2,3.3"/>
	<path class="st18" d="M132.1,123.5c1.2,2.2,2.9,7.9,2.9,7.9"/>
	<g>
		<g>
			<path class="st5" d="M79.8,61.5c0,0.1,0,0.1,0,0.3c0,0.1,0,0.2,0,0.4c0,0.2,0.1,0.3,0.2,0.3c0.1,0,0.1,0,0.1,0c0-0.4,0-0.6,0-0.9
				c0.1,0,0.2,0,0.4,0c0,0.9,0,1.4-0.1,2.3c-0.2,0-0.4,0-0.6,0c-0.4,0-0.6-0.2-0.5-0.6c0-0.1,0-0.1,0-0.2c0-0.2,0.1-0.4,0.3-0.4
				c0,0,0,0,0,0c-0.2-0.1-0.2-0.3-0.2-0.5c0-0.1,0-0.2,0-0.4c0-0.1,0-0.2,0-0.3C79.6,61.4,79.6,61.4,79.8,61.5z M80.1,63.4
				c0-0.3,0-0.4,0-0.7c-0.1,0-0.1,0-0.1,0c-0.1,0-0.2,0-0.2,0.2c0,0.1,0,0.1,0,0.2c0,0.2,0,0.2,0.2,0.2C80,63.4,80,63.4,80.1,63.4z"
				/>
			<path class="st5" d="M78.7,62.7c-0.2,0-0.3,0-0.5,0c0-0.1,0-0.2,0-0.3c0.2,0,0.3,0,0.5,0c0-0.3,0-0.4,0.1-0.7c-0.3,0-0.4,0-0.6,0
				c0-0.1,0-0.2,0-0.3c0.4,0,0.6,0,1,0.1c-0.1,0.9-0.1,1.4-0.2,2.3c-0.4,0-0.6,0-1-0.1c0-0.1,0-0.2,0-0.3c0.3,0,0.4,0,0.7,0.1
				C78.7,63.1,78.7,63,78.7,62.7z"/>
			<path class="st5" d="M77.3,62.5c-0.2,0-0.3,0-0.5-0.1c0-0.3,0.1-0.4,0.1-0.7c0-0.4,0.3-0.5,0.6-0.5c0.4,0,0.5,0.3,0.5,0.6
				c0,0.5-0.1,0.7-0.1,1.2c0,0.4-0.3,0.6-0.6,0.5c-0.4,0-0.5-0.3-0.5-0.6c0-0.1,0-0.1,0-0.2c0.1,0,0.2,0,0.4,0c0,0.1,0,0.1,0,0.2
				c0,0.2,0,0.2,0.2,0.2c0.1,0,0.2,0,0.2-0.2c0.1-0.5,0.1-0.7,0.1-1.2c0-0.2,0-0.2-0.2-0.2c-0.1,0-0.2,0-0.2,0.2c0,0.2,0,0.3,0,0.4
				c0.1,0,0.1,0,0.2,0C77.3,62.4,77.3,62.4,77.3,62.5z"/>
			<path class="st5" d="M76,63.4c0.1-0.7,0.2-1,0.2-1.7c0-0.2,0-0.2-0.2-0.2c-0.1,0-0.2,0-0.2,0.2c-0.1,0.7-0.2,1-0.3,1.7
				c-0.1,0-0.2,0-0.4-0.1c0.1-0.7,0.2-1,0.3-1.7c0.1-0.4,0.3-0.5,0.6-0.5c0.4,0,0.5,0.3,0.5,0.6c-0.1,0.7-0.1,1-0.2,1.7
				C76.3,63.4,76.2,63.4,76,63.4z"/>
			<path class="st5" d="M75,63.3c-0.2,0-0.2,0-0.4-0.1c0.1-0.8,0.2-1.1,0.3-1.9c-0.2,0-0.4-0.1-0.6-0.1c0-0.1,0-0.2,0.1-0.3
				c0.4,0.1,0.6,0.1,0.9,0.2C75.3,61.9,75.2,62.4,75,63.3z"/>
			<path class="st5" d="M73.2,60.6c0.1,0,0.2,0,0.4,0.1c0,0.2,0,0.2,0,0.4c0.2,0,0.3,0.1,0.4,0.1C74,61,74,61,74.1,60.8
				c0.1,0,0.2,0,0.3,0.1c-0.3,0.9-0.5,1.3-0.8,2.1c-0.2,0-0.3-0.1-0.5-0.1C73.1,62,73.1,61.5,73.2,60.6z M73.8,61.5
				c-0.1,0-0.2,0-0.3-0.1c0,0.5,0,0.7-0.1,1.1c0,0,0,0,0,0C73.6,62.1,73.7,61.9,73.8,61.5z"/>
			<path class="st5" d="M72.1,61.1C72.1,61.1,72.1,61.1,72.1,61.1c-0.3,0.6-0.4,0.9-0.6,1.5c-0.2-0.1-0.3-0.1-0.5-0.1
				c0.2-0.9,0.4-1.3,0.6-2.2c0.1,0,0.2,0,0.3,0.1c-0.2,0.6-0.2,0.9-0.4,1.6c0,0,0,0,0,0c0.3-0.6,0.4-0.9,0.6-1.5
				c0.1,0,0.2,0,0.3,0.1c0,0.6-0.1,1-0.1,1.6c0,0,0,0,0,0c0.1-0.6,0.2-0.9,0.4-1.5c0.1,0,0.2,0,0.3,0.1c-0.2,0.9-0.3,1.3-0.5,2.2
				c-0.2,0-0.3-0.1-0.5-0.1C72,62,72.1,61.7,72.1,61.1z"/>
			<path class="st5" d="M70.7,62.3c-0.1,0-0.2-0.1-0.4-0.1c0.3-0.9,0.4-1.3,0.6-2.1c0.1,0,0.2,0.1,0.3,0.1
				C71,61.1,70.9,61.5,70.7,62.3z"/>
			<path class="st5" d="M69.9,61.5C69.9,61.5,69.9,61.5,69.9,61.5c0.2-0.6,0.3-0.9,0.5-1.5c0.1,0,0.2,0.1,0.3,0.1
				c-0.2,0.9-0.4,1.3-0.6,2.1c-0.2-0.1-0.3-0.1-0.5-0.1c0-0.5,0-0.8,0-1.4c0,0,0,0,0,0c-0.2,0.5-0.2,0.8-0.4,1.3
				c-0.1,0-0.2-0.1-0.3-0.1c0.3-0.8,0.4-1.3,0.7-2.1c0.1,0,0.2,0.1,0.3,0.1C69.9,60.5,69.9,60.8,69.9,61.5z"/>
		</g>
	</g>
</g>
</svg>
